<?xml version="1.0" standalone="no"?>
<!DOCTYPE svg PUBLIC "-//W3C//DTD SVG 1.1//EN" "http://www.w3.org/Graphics/SVG/1.1/DTD/svg11.dtd" >
<svg>
<metadata>
Created by FontForge 20110222 at Mon Mar  7 11:46:22 2011
 By www-data
(c) Yuliyan Ilev. 2010. All Rights Reserved
</metadata>
<defs>
<font id="Nowadays" horiz-adv-x="737" >
  <font-face 
    font-family="Nowadays"
    font-weight="400"
    font-stretch="normal"
    units-per-em="2048"
    panose-1="2 0 5 0 0 0 0 0 0 0"
    ascent="1638"
    descent="-410"
    x-height="1019"
    cap-height="1435"
    bbox="-140 -431 1882 1788"
    underline-thickness="150"
    underline-position="-142"
    unicode-range="U+0020-20AC"
  />
    <missing-glyph />
    <glyph glyph-name="space" unicode=" " horiz-adv-x="508" 
 />
    <glyph glyph-name="space" unicode="&#xa0;" horiz-adv-x="508" 
 />
    <glyph glyph-name="exclam" unicode="!" horiz-adv-x="499" 
d="M208 1421q68 0 95 -85v-962q0 -68 -85 -95h-23q-68 0 -95 85v962q0 68 85 95h23zM210 203q65 0 93 -82v-32q0 -48 -66 -85l-27 -4h-17q-65 0 -93 82v28q0 65 82 93h28z" />
    <glyph glyph-name="quotedbl" unicode="&#x22;" horiz-adv-x="672" 
d="M164 1468q73 0 101 -89v-240q0 -72 -90 -101h-24q-73 0 -101 90v239q0 73 90 101h24zM486 1468q73 0 101 -89v-240q0 -72 -89 -101h-25q-73 0 -101 90v239q0 73 90 101h24z" />
    <glyph glyph-name="numbersign" unicode="#" horiz-adv-x="1336" 
d="M628 1420h12q69 0 95 -85v-23q0 -16 -95 -298h188q4 0 119 349q35 57 86 57h13q68 0 95 -85v-23q0 -16 -95 -298h76q68 0 95 -84v-24q0 -68 -85 -95h-152q-4 0 -78 -228h68q68 0 95 -84v-24q0 -68 -85 -95h-143q-5 0 -110 -323q-35 -57 -87 -57h-12q-69 0 -96 85v23
q0 16 87 272h-188q-4 0 -110 -323q-35 -57 -86 -57h-13q-69 0 -95 85v23q0 16 86 272h-118q-68 0 -95 85v23q0 68 85 95h194q4 0 78 228h-110q-68 0 -95 85v23q0 68 85 95h186q4 0 118 349q35 57 87 57zM497 583h188q4 0 78 228h-188q-5 0 -78 -228z" />
    <glyph glyph-name="dollar" unicode="$" horiz-adv-x="940" 
d="M191 1424h529q65 0 94 -83v-31q0 -47 -60 -81q-15 -11 -74 -11h-388q-59 0 -84 -72l-5 -55v-144q0 -92 36 -110q25 -23 94 -23h290q82 0 153 -79q38 -56 38 -112v-432q0 -82 -79 -153q-56 -38 -112 -38h-530q-65 0 -93 83v27q0 65 83 93h387q96 0 111 30q29 23 29 100
v137q0 98 -31 113q-27 25 -66 25h-263q-136 0 -178 47q-72 67 -72 146v432q0 118 127 178q44 13 64 13zM418 1621q68 0 95 -85v-1552q0 -68 -85 -95h-23q-68 0 -95 85v1552q0 68 85 95h23z" />
    <glyph glyph-name="quotesingle" unicode="'" horiz-adv-x="349" 
d="M164 1468q73 0 101 -89v-240q0 -72 -90 -101h-24q-73 0 -101 90v239q0 73 90 101h24z" />
    <glyph glyph-name="parenleft" unicode="(" horiz-adv-x="758" 
d="M465 1416h12q68 0 95 -84v-23q0 -21 -48 -127q-104 -271 -104 -474q0 -225 150 -584l2 -17v-12q0 -68 -84 -95h-23q-77 0 -114 126q-133 336 -133 565v34q0 261 150 611q34 80 97 80z" />
    <glyph glyph-name="parenright" unicode=")" horiz-adv-x="758" 
d="M422 1336q150 -350 150 -611v-34q0 -229 -133 -565q-37 -126 -114 -126h-23q-84 27 -84 95v12l2 17q150 359 150 584q0 203 -104 474q-48 106 -48 127v23q27 84 95 84h12q63 0 97 -80z" />
    <glyph glyph-name="plus" unicode="+" horiz-adv-x="1014" 
d="M458 1014q86 0 120 -107v-214h201q86 0 120 -107v-30q0 -86 -107 -120h-214v-201q0 -86 -107 -120h-30q-86 0 -120 107v214h-201q-86 0 -120 107v30q0 86 107 120h214v201q0 86 107 120h30z" />
    <glyph glyph-name="comma" unicode="," horiz-adv-x="499" 
d="M192 203h12q66 0 92 -81v-23q0 -47 -85 -120q-58 -69 -104 -69h-12q-66 0 -92 81v23q0 47 85 120q58 69 104 69z" />
    <glyph glyph-name="hyphen" unicode="-" horiz-adv-x="942" 
d="M679 693q86 0 120 -107v-30q0 -86 -107 -120h-572q-86 0 -120 107v30q0 86 107 120h572z" />
    <glyph glyph-name="hyphen" unicode="&#xad;" horiz-adv-x="942" 
d="M679 693q86 0 120 -107v-30q0 -86 -107 -120h-572q-86 0 -120 107v30q0 86 107 120h572z" />
    <glyph glyph-name="period" unicode="." horiz-adv-x="499" 
d="M210 203q65 0 93 -82v-32q0 -48 -66 -85l-27 -4h-17q-65 0 -93 82v28q0 65 82 93h28z" />
    <glyph glyph-name="slash" unicode="/" horiz-adv-x="698" 
d="M502 1423h13q68 0 95 -84v-24q0 -18 -108 -334q-305 -921 -313 -934q-35 -47 -81 -47h-13q-68 0 -95 85v23q0 19 108 335q305 921 313 934q35 46 81 46z" />
    <glyph glyph-name="zero" unicode="0" horiz-adv-x="940" 
d="M193 1424h424q112 0 178 -110q19 -45 19 -83v-1034q0 -112 -110 -178q-45 -19 -83 -19h-424q-112 0 -178 110q-19 45 -19 83v1034q0 112 110 178q45 19 83 19zM203 1087v-676h3l286 810h-159q-105 0 -125 -68zM608 941l-260 -738h133q104 0 125 68l4 72v598h-2z" />
    <glyph glyph-name="one" unicode="1" horiz-adv-x="640" 
d="M402 1428h12q69 0 96 -85v-1247q0 -69 -85 -96h-23q-69 0 -96 85v1007q-154 -140 -159 -140q-25 -8 -39 -8h-12q-69 0 -96 85v23q0 51 83 115q258 239 274 248q24 13 45 13z" />
    <glyph glyph-name="two" unicode="2" horiz-adv-x="940" 
d="M617 1424q112 0 178 -110q19 -45 19 -83v-424q0 -112 -110 -178q-45 -19 -83 -19h-288q-105 0 -125 -68l-5 -65v-274h515q69 0 96 -84v-24q0 -68 -85 -95h-536q-124 0 -182 134q-11 39 -11 63v424q0 124 134 182q39 11 63 11h284q104 0 125 68l4 72v137q0 105 -68 125
l-72 5h-375q-68 0 -95 84v24q0 68 85 95h532z" />
    <glyph glyph-name="three" unicode="3" horiz-adv-x="1014" 
d="M510 1424q149 0 252 -125q51 -81 51 -167v-324q0 -81 -68 -150v-2q68 -28 68 -89v-273q0 -191 -168 -271q-43 -17 -101 -23l-89 2h-360q-68 0 -95 85v23q0 68 85 95h438q68 0 80 51q6 29 6 70v146q0 96 -29 110q-23 29 -100 29h-385q-68 0 -95 85v23q0 69 85 96h385
q95 0 110 29q29 23 29 100v158q0 77 -31 96q-35 23 -87 23h-396q-68 0 -95 85v23q0 68 85 95h425z" />
    <glyph glyph-name="four" unicode="4" horiz-adv-x="940" 
d="M108 1423q68 0 95 -85v-392q0 -91 36 -110q25 -23 93 -23h138q96 0 110 30q30 22 30 99v385q0 69 84 96h24q68 0 95 -85v-1243q0 -68 -85 -95h-23q-68 0 -95 85v385q0 96 -30 110q-23 30 -99 30h-288q-124 0 -182 133q-11 40 -11 64v520q0 69 85 96h23z" />
    <glyph glyph-name="five" unicode="5" horiz-adv-x="940" 
d="M197 1423h521q68 0 95 -85v-23q0 -69 -85 -95h-525v-274q0 -91 36 -110q25 -23 93 -23h284q112 0 178 -110q19 -44 19 -83v-423q0 -112 -110 -178q-44 -19 -83 -19h-525q-68 0 -95 85v23q0 68 85 95h385q96 0 110 30q30 23 30 99v138q0 96 -30 110q-23 30 -99 30h-288
q-124 0 -182 133q-11 40 -11 64v423q0 124 133 182q40 11 64 11z" />
    <glyph glyph-name="six" unicode="6" horiz-adv-x="940" 
d="M197 1424h547q68 0 95 -85v-23q0 -69 -85 -96h-421q-105 0 -125 -67l-5 -66v-144q0 -105 68 -125l72 -4h278q124 0 182 -134q11 -39 11 -63v-424q0 -124 -134 -182q-39 -11 -63 -11h-424q-124 0 -182 133q-11 40 -11 64v1034q0 124 133 182q40 11 64 11zM203 477v-144
q0 -105 68 -125l72 -5h138q104 0 125 68l4 72v138q0 104 -68 125l-72 4h-137q-105 0 -125 -68z" />
    <glyph glyph-name="seven" unicode="7" horiz-adv-x="940" 
d="M616 1423q52 0 138 -66q59 -63 59 -131v-15q0 -74 -328 -648q-172 -305 -307 -531q-36 -32 -70 -32h-13q-68 0 -95 85v23q0 32 61 127q383 657 540 976v4l-12 5h-494q-68 0 -95 84v23q0 69 85 96h531z" />
    <glyph glyph-name="eight" unicode="8" horiz-adv-x="940" 
d="M193 1423h423q112 0 178 -110q19 -45 19 -83v-423q0 -48 -25 -94q25 -45 25 -93v-423q0 -112 -110 -178q-44 -19 -83 -19h-423q-112 0 -178 110q-19 44 -19 83v423q0 47 25 93q-25 46 -25 93v424q0 112 110 178q44 19 83 19zM203 1086v-144q0 -104 68 -125l72 -4h138
q104 0 125 68l4 72v137q0 105 -68 125l-72 5h-138q-104 0 -125 -68zM203 476v-144q0 -104 68 -125l72 -4h138q104 0 125 68l4 72v138q0 104 -68 125l-72 4h-138q-104 0 -125 -68z" />
    <glyph glyph-name="nine" unicode="9" horiz-adv-x="940" 
d="M197 1423h423q124 0 182 -134q11 -39 11 -63v-1033q0 -124 -133 -182q-40 -11 -64 -11h-521q-68 0 -95 85v23q0 68 85 95h396q104 0 125 68l4 72v138q0 104 -68 125l-72 4h-277q-124 0 -182 133q-11 40 -11 64v423q0 124 133 182q40 11 64 11zM203 1086v-144
q0 -104 68 -125l72 -4h138q104 0 125 68l4 72v137q0 105 -68 125l-72 5h-138q-104 0 -125 -68z" />
    <glyph glyph-name="colon" unicode=":" horiz-adv-x="499" 
d="M210 203q65 0 93 -82v-32q0 -48 -66 -85l-27 -4h-17q-65 0 -93 82v28q0 65 82 93h28zM210 1028q65 0 93 -82v-32q0 -48 -66 -85l-27 -4h-17q-65 0 -93 82v28q0 65 82 93h28z" />
    <glyph glyph-name="semicolon" unicode=";" horiz-adv-x="499" 
d="M210 1028q65 0 93 -82v-32q0 -48 -66 -85l-27 -4h-17q-65 0 -93 82v28q0 65 82 93h28zM192 203h12q66 0 92 -81v-23q0 -47 -85 -120q-58 -69 -104 -69h-12q-66 0 -92 81v23q0 47 85 120q58 69 104 69z" />
    <glyph glyph-name="semicolon" unicode="&#x37e;" horiz-adv-x="499" 
d="M210 1028q65 0 93 -82v-32q0 -48 -66 -85l-27 -4h-17q-65 0 -93 82v28q0 65 82 93h28zM192 203h12q66 0 92 -81v-23q0 -47 -85 -120q-58 -69 -104 -69h-12q-66 0 -92 81v23q0 47 85 120q58 69 104 69z" />
    <glyph glyph-name="equal" unicode="=" horiz-adv-x="820" 
d="M629 523q70 0 97 -86v-24q0 -69 -86 -96h-533q-70 0 -97 86v23q0 70 86 97h533zM629 764q70 0 97 -86v-24q0 -69 -86 -96h-533q-70 0 -97 86v23q0 70 86 97h533z" />
    <glyph glyph-name="question" unicode="?" horiz-adv-x="940" 
d="M391 1422h34q196 0 327 -159q68 -98 68 -200q0 -120 -152 -300q-16 -29 -159 -191v-150q0 -84 -69 -112l-28 -4h-13q-63 0 -93 78l-2 19v241q0 10 53 64q251 286 258 350v9q0 75 -91 127q-51 25 -120 25q-141 0 -184 -99q-17 -51 -17 -91l2 -13q0 -69 -78 -99l-19 -2h-13
q-64 0 -93 78l-2 19v34q0 169 135 294q114 82 256 82zM410 203q65 0 93 -82v-32q0 -48 -66 -85l-27 -4h-17q-65 0 -93 82v28q0 65 82 93h28z" />
    <glyph glyph-name="at" unicode="@" horiz-adv-x="2019" 
d="M972 622q-83 -10 -151 -80t-68 -199q0 -107 64 -194t183 -87q97 5 126 167v476q-54 -63 -154 -83zM1360 29q-63 1 -100.5 18t-61.5 54q-29 -37 -82 -64.5t-133 -27.5q-144 0 -256.5 100.5t-112.5 233.5q1 87 53 166.5t132.5 115t173.5 49.5q67 16 110 42.5t43 74.5
q-2 69 -41 125t-129 56q-72 0 -121.5 -59t-50.5 -125h-45v159q0 20 72 40q73 20 178 20q109 -2 193.5 -64.5t84.5 -157.5v-589q0 -117 94 -117q185 35 267 191.5t82 382.5q-20 335 -232 540q-197 188 -480 188q-205 0 -392.5 -137.5t-269.5 -355.5q-67 -178 -67 -361
q0 -313 129.5 -511.5t305 -290.5t318.5 -92q274 0 575 208v-75q-263 -184 -571 -184q-240 0 -461 122.5t-343 342t-122 461.5t124 464.5t345.5 342t456.5 119.5q362 0 609 -230t247 -566q0 -270 -176 -439q-175 -168 -346 -170z" />
    <glyph glyph-name="A" unicode="A" horiz-adv-x="962" 
d="M194 1435h427q114 0 180 -111q19 -45 19 -83v-1145q0 -69 -85 -96h-24q-69 0 -96 85v389q0 97 -30 111q-23 30 -100 30h-139q-97 0 -111 -30q-30 -23 -30 -100v-389q0 -69 -85 -96h-24q-69 0 -96 85v1151q0 114 111 180q45 19 83 19zM205 1100v-145q0 -93 36 -112
q25 -23 94 -23h139q97 0 111 30q30 23 30 100v139q0 97 -30 111q-23 30 -100 30h-139q-97 0 -111 -30q-30 -23 -30 -100z" />
    <glyph glyph-name="B" unicode="B" horiz-adv-x="940" 
d="M96 1435h419q150 0 254 -126q51 -82 51 -169v-247q0 -92 -68 -180q68 -97 68 -192v-226q0 -178 -171 -265q-74 -30 -128 -30h-425q-69 0 -96 85v1254q0 67 79 94zM205 1100v-145q0 -93 36 -112q25 -23 94 -23h156q101 0 115 45q9 23 9 49v196q0 78 -32 97q-35 23 -88 23
h-149q-97 0 -111 -30q-30 -23 -30 -100zM205 485v-145q0 -93 36 -112q25 -23 94 -23h160q120 0 120 105v185q0 120 -105 120h-164q-97 0 -111 -30q-30 -23 -30 -100z" />
    <glyph glyph-name="C" unicode="C" horiz-adv-x="962" 
d="M199 1435h525q69 0 96 -85v-24q0 -69 -85 -96h-389q-97 0 -111 -30q-30 -23 -30 -100v-760q0 -93 36 -111q25 -24 94 -24h389q69 0 96 -85v-24q0 -69 -85 -96h-541q-125 0 -183 135q-11 39 -11 64v1042q0 125 135 184q39 10 64 10z" />
    <glyph glyph-name="D" unicode="D" horiz-adv-x="962" 
d="M515 1435q150 0 254 -126q51 -82 51 -169v-835q0 -150 -126 -254q-82 -51 -169 -51h-429q-69 0 -96 85v1254q0 69 85 96h430zM205 1230v-1025h290q78 0 97 32q23 35 23 88v785q0 78 -32 97q-35 23 -88 23h-290z" />
    <glyph glyph-name="E" unicode="E" horiz-adv-x="962" 
d="M199 1435h525q69 0 96 -85v-24q0 -69 -85 -96h-389q-97 0 -111 -30q-30 -23 -30 -100v-145q0 -93 36 -112q25 -23 94 -23h286q70 0 97 -85v-24q0 -69 -86 -96h-286q-97 0 -111 -30q-30 -23 -30 -100v-145q0 -93 36 -112q25 -23 94 -23h389q69 0 96 -85v-24q0 -69 -85 -96
h-541q-125 0 -183 135q-11 39 -11 64v1042q0 125 135 183q39 11 64 11z" />
    <glyph glyph-name="F" unicode="F" horiz-adv-x="962" 
d="M199 1435h525q69 0 96 -85v-24q0 -69 -85 -96h-389q-97 0 -111 -30q-30 -23 -30 -100v-145q0 -93 36 -112q25 -23 94 -23h286q70 0 97 -85v-24q0 -69 -86 -96h-286q-97 0 -111 -30q-30 -23 -30 -100v-389q0 -69 -85 -96h-24q-69 0 -96 85v1156q0 125 135 183q39 11 64 11
z" />
    <glyph glyph-name="G" unicode="G" horiz-adv-x="962" 
d="M198 1435h525q69 0 96 -85v-24q0 -69 -86 -96h-394q-92 0 -111 -36q-23 -25 -23 -94v-759q0 -92 36 -111q25 -23 94 -23h138q97 0 111 30q30 23 30 100v36q0 97 -30 111q-23 30 -100 30h-81q-69 0 -96 85v24q0 69 85 96h233q125 0 183 -135q11 -40 11 -64v-326
q0 -131 -120 -183l-38 -11l-132 2h-335q-125 0 -183 134q-11 40 -11 64v1041q0 125 134 183q40 11 64 11z" />
    <glyph glyph-name="H" unicode="H" horiz-adv-x="942" 
d="M110 1425q65 0 94 -83v-394q0 -92 36 -110q24 -24 93 -24h138q96 0 110 30q30 23 30 100v388q0 65 82 93h28q65 0 93 -83v-1253q0 -48 -65 -85l-28 -4h-17q-65 0 -93 83v388q0 96 -30 110q-23 30 -100 30h-137q-96 0 -111 -30q-29 -23 -29 -100v-392q0 -48 -66 -85
l-28 -4h-17q-65 0 -93 83v1249q0 65 83 93h27z" />
    <glyph glyph-name="I" unicode="I" horiz-adv-x="330" 
d="M109 1435q69 0 96 -85v-1254q0 -69 -85 -96h-24q-69 0 -96 85v1254q0 69 85 96h24z" />
    <glyph glyph-name="J" unicode="J" horiz-adv-x="564" 
d="M342 1424q68 0 95 -85v-1146q0 -124 -134 -182q-39 -11 -63 -11h-115q-68 0 -95 85v23q0 69 85 95q86 0 110 60q8 29 8 70v996q0 68 85 95h24z" />
    <glyph glyph-name="K" unicode="K" horiz-adv-x="940" 
d="M108 1424q69 0 95 -85v-525h45l388 578q36 32 70 32h12q69 0 96 -85v-23q0 -35 -68 -127l-314 -471v-12q368 -550 375 -566l7 -32v-13q0 -68 -85 -95h-23q-60 0 -102 81l-356 529h-45v-515q0 -68 -84 -95h-24q-68 0 -95 85v1244q0 68 85 95h23z" />
    <glyph glyph-name="L" unicode="L" horiz-adv-x="940" 
d="M110 1424q65 0 93 -83v-1004q0 -92 36 -110q25 -24 94 -24h387q65 0 94 -82v-32q0 -48 -66 -85l-28 -4h-529q-118 0 -178 127q-13 44 -13 64v1140q0 65 83 93h27z" />
    <glyph glyph-name="M" unicode="M" horiz-adv-x="1359" 
d="M261 1424q65 0 110 -100l239 -406l278 472q36 34 72 34h165q69 0 96 -85v-1244q0 -68 -85 -95h-23q-69 0 -96 85v1119l-326 -556q-34 -38 -74 -38h-13q-66 0 -108 98l-293 496v-1109q0 -68 -84 -95h-24q-68 0 -95 85v1244q0 68 85 95h176z" />
    <glyph glyph-name="N" unicode="N" horiz-adv-x="940" 
d="M95 1424h13q70 0 108 -104l391 -783h2v794q0 62 77 91l12 2h26q48 0 84 -66l5 -27v-1240q0 -48 -66 -85l-36 -6q-77 0 -116 110l-390 779h-2v-794q0 -65 -82 -93h-28q-65 0 -93 83v1250q0 46 59 81q18 8 36 8z" />
    <glyph glyph-name="O" unicode="O" horiz-adv-x="940" 
d="M191 1424h432q118 0 178 -127q13 -44 13 -64v-1042q0 -118 -127 -178q-45 -13 -64 -13h-432q-118 0 -178 127q-13 44 -13 64v1042q0 118 127 178q44 13 64 13zM203 1091v-754q0 -92 36 -110q25 -24 94 -24h137q96 0 111 30q29 23 29 100v748q0 97 -31 112q-27 25 -66 25
h-221q-59 0 -84 -72z" />
    <glyph glyph-name="P" unicode="P" horiz-adv-x="940" 
d="M515 1424q145 0 246 -112q53 -77 53 -153v-231q0 -112 -81 -220q-59 -68 -150 -91q-40 -9 -132 -9h-159q-59 0 -84 -72l-5 -55v-392q0 -48 -65 -85l-28 -4h-17q-65 0 -93 83v1248q0 65 83 93h432zM203 1091v-144q0 -92 36 -110q25 -23 94 -23h137q102 0 111 34
q29 37 29 125v140q0 72 -19 80q-28 21 -72 25h-227q-59 0 -84 -72z" />
    <glyph glyph-name="Q" unicode="Q" horiz-adv-x="1001" 
d="M191 1424h432q118 0 178 -127q13 -44 13 -64v-1042l-4 -43q55 -47 55 -85v-25q0 -48 -66 -85l-23 -4h-26q-38 0 -87 57l-40 -6h-432q-118 0 -178 127q-13 44 -13 64v1042q0 118 127 178q44 13 64 13zM203 1091v-754q0 -92 36 -110q25 -24 94 -24h131q-57 54 -57 89v26
q0 48 66 85l23 4h25q36 0 89 -57v731q0 97 -31 112q-27 25 -66 25h-221q-59 0 -84 -72z" />
    <glyph glyph-name="R" unicode="R" horiz-adv-x="940" 
d="M513 1424q142 0 241 -106q60 -75 60 -161v-222q0 -133 -94 -240q-85 -85 -201 -85h-49v-2l337 -466l7 -34v-13q0 -68 -85 -95h-23q-57 0 -104 81l-388 529h-11v-515q0 -68 -84 -95h-24q-68 0 -95 85v1244q0 68 85 95h428zM203 1091v-144q0 -92 36 -110q25 -23 94 -23h157
q60 0 80 19q40 43 40 131v168q0 61 -36 72q-34 17 -80 17h-151q-96 0 -110 -30q-30 -23 -30 -100z" />
    <glyph glyph-name="S" unicode="S" horiz-adv-x="940" 
d="M191 1424h529q65 0 94 -83v-31q0 -47 -60 -81q-15 -11 -74 -11h-388q-59 0 -84 -72l-5 -55v-144q0 -92 36 -110q25 -23 94 -23h290q82 0 153 -79q38 -56 38 -112v-432q0 -82 -79 -153q-56 -38 -112 -38h-530q-65 0 -93 83v27q0 65 83 93h387q96 0 111 30q29 23 29 100
v137q0 98 -31 113q-27 25 -66 25h-263q-136 0 -178 47q-72 67 -72 146v432q0 118 127 178q44 13 64 13z" />
    <glyph glyph-name="T" unicode="T" horiz-adv-x="940" 
d="M720 1424q65 0 94 -83v-31q0 -49 -66 -85l-28 -4h-72q-95 0 -110 -30q-29 -23 -29 -100v-1002q0 -48 -66 -85l-28 -4h-17q-64 0 -93 83v998q0 96 -30 110q-22 30 -99 30h-83q-65 0 -93 82v28q0 65 83 93h637z" />
    <glyph glyph-name="U" unicode="U" horiz-adv-x="940" 
d="M110 1423q65 0 93 -83v-1003q0 -92 36 -110q25 -24 93 -24h138q96 0 110 30q30 23 30 99v998q0 64 82 93h28q65 0 93 -83v-1149q0 -118 -127 -178q-44 -13 -64 -13h-431q-118 0 -178 127q-13 44 -13 64v1139q0 64 83 93h27z" />
    <glyph glyph-name="V" unicode="V" horiz-adv-x="940" 
d="M108 1424q69 0 95 -85v-888l212 -212h2l193 208v882q0 68 85 95h23q69 0 96 -85v-938q0 -46 -79 -119q-219 -244 -250 -269q-29 -13 -46 -13h-38q-50 0 -117 81q-271 266 -271 275q-13 24 -13 45v928q0 68 85 95h23z" />
    <glyph glyph-name="W" unicode="W" horiz-adv-x="1359" 
d="M110 1424q65 0 93 -83v-1015q47 -120 138 -120h30q91 0 138 120v1005q0 62 76 91l17 2h17q62 0 91 -76l2 -17v-998q35 -86 106 -119q20 -8 36 -8h25q92 0 138 120v1005q0 65 83 93h27q65 0 94 -83v-1040q-4 -70 -85 -178q-113 -123 -257 -123h-25q-126 0 -239 110
q-107 -110 -244 -110h-30q-183 0 -299 184q-42 79 -42 117v1030q0 65 83 93h27z" />
    <glyph glyph-name="X" unicode="X" horiz-adv-x="940" 
d="M95 1421h13q72 0 114 -116l177 -348l2 -3h7q12 8 111 216l112 217q36 34 72 34h19q48 0 85 -65l6 -36q0 -29 -57 -135l-237 -473q288 -572 290 -583l4 -26q0 -69 -78 -99l-25 -4q-77 0 -117 110l-181 357l-7 2q-11 0 -57 -102q-162 -324 -171 -333q-38 -34 -76 -34
q-69 0 -99 78l-2 19v13q0 29 68 152l223 450q-287 572 -287 578l-4 17v19q0 67 78 93z" />
    <glyph glyph-name="Y" unicode="Y" horiz-adv-x="940" 
d="M95 1424h13q71 0 110 -108l184 -364l2 -2h2q11 6 174 341q51 109 76 118q27 15 49 15h19q48 0 84 -66l7 -36q0 -29 -60 -139q-245 -489 -245 -495v-559q0 -98 -70 -123l-34 -6q-70 0 -99 78l-2 13v592l-301 608l-4 19v19q0 66 78 93z" />
    <glyph glyph-name="Z" unicode="Z" horiz-adv-x="940" 
d="M725 1424q46 0 80 -59q9 -18 9 -36v-13q0 -30 -62 -140l-474 -956v-2q0 -13 38 -15h404q65 0 94 -82v-32q0 -48 -66 -85l-28 -4h-625q-66 0 -93 78l-2 11v25q0 21 102 214l434 876q-4 14 -19 14h-383q-93 0 -117 47q-17 24 -17 49v17q0 65 83 93h642z" />
    <glyph glyph-name="backslash" unicode="\" horiz-adv-x="698" 
d="M189 1377q8 -13 313 -934q108 -316 108 -335v-23q-27 -85 -95 -85h-13q-46 0 -81 47q-8 13 -313 934q-108 316 -108 334v24q27 84 95 84h13q46 0 81 -46z" />
    <glyph glyph-name="asciicircum" unicode="^" horiz-adv-x="719" 
d="M309 1420h10q37 0 89 -62q209 -206 209 -212q10 -19 10 -35v-9q0 -53 -65 -74h-18q-38 0 -96 69l-134 132q-191 -191 -196 -191q-19 -10 -35 -10h-9q-53 0 -74 65v18q0 38 62 90q206 209 212 209q19 10 35 10z" />
    <glyph glyph-name="underscore" unicode="_" horiz-adv-x="1339" 
d="M1079 -7q86 0 120 -107v-30q0 -86 -107 -120h-972q-86 0 -120 107v30q0 86 107 120h972z" />
    <glyph glyph-name="a" unicode="a" 
d="M412 0h-209q-108 0 -184 124q-19 41 -19 70v217q0 103 115 179q43 26 109 26h94q64 0 89 77l2 21q0 73 -83 102l-47 2h-177q-71 0 -100 79l-2 19v9q0 65 75 94q9 4 27 4h303q116 0 188 -121q21 -43 21 -77v-608q0 -142 -149 -208q-29 -9 -53 -9zM405 303v8q0 73 -81 98
l-21 2q-68 0 -96 -79l-2 -21v-6q0 -79 94 -100h6q69 0 98 78z" />
    <glyph glyph-name="b" unicode="b" 
d="M94 1431h15q63 0 91 -77q4 -18 4 -47v-193q0 -62 75 -90l11 -2h106q139 0 207 -143q10 -31 10 -51v-634q0 -85 -102 -162q-51 -32 -91 -32h-226q-85 0 -162 102q-32 51 -32 92v1143q0 64 77 92zM204 718v-418q0 -65 79 -91l17 -2h13q66 0 94 76l2 17v422q0 64 -83 91
l-19 3q-71 0 -100 -77z" />
    <glyph glyph-name="c" unicode="c" 
d="M193 1019h321q68 0 95 -81l2 -23q0 -65 -74 -96l-32 -4h-193q-83 0 -108 -78v-448q0 -49 72 -81q25 -4 64 -4h172q69 0 97 -81l2 -21q0 -71 -76 -98q-8 -4 -23 -4h-304q-121 0 -193 132q-15 38 -15 61v633q0 82 98 159q54 34 95 34z" />
    <glyph glyph-name="d" unicode="d" horiz-adv-x="739" 
d="M505 1432h15q63 0 92 -77l2 -17v-1144q0 -85 -103 -162q-50 -32 -91 -32h-226q-85 0 -162 102q-32 51 -32 92v635q0 87 107 164q48 30 110 30h107q21 0 57 28q28 34 28 63v194q0 86 56 113q21 11 40 11zM205 300q0 -64 78 -91l17 -2h13q66 0 94 76l2 17v418q0 68 -81 96
l-21 2q-76 0 -102 -85v-431z" />
    <glyph glyph-name="e" unicode="e" 
d="M202 1023h209q108 0 184 -124q19 -41 19 -70v-217q0 -103 -115 -179q-43 -26 -109 -26h-94q-64 0 -89 -77l-2 -21q0 -73 83 -102l47 -2h177q71 0 100 -79l2 -19v-9q0 -65 -75 -94q-9 -4 -27 -4h-303q-116 0 -188 121q-21 43 -21 77v608q0 142 149 208q29 9 53 9zM209 720
v-8q0 -73 81 -98l21 -2q68 0 96 79l2 21v6q0 79 -94 100h-6q-69 0 -98 -78z" />
    <glyph glyph-name="f" unicode="f" 
d="M364 1421h150q67 0 95 -82l2 -19q0 -72 -80 -100l-17 -2h-108q-136 0 -169 -61q-34 -59 -34 -117l2 -52v-30q0 -61 72 -91l11 -2h203q85 0 114 -72l6 -34q0 -73 -82 -99l-24 -2l-194 2q-37 -3 -74 -26q-32 -33 -32 -57v-461q0 -85 -70 -112l-27 -4h-13q-64 0 -93 78
l-2 19v943q0 205 159 322q97 59 205 59z" />
    <glyph glyph-name="g" unicode="g" 
d="M193 1018h225q87 0 165 -106q28 -53 28 -87v-1040q0 -81 -98 -159q-54 -34 -95 -34h-325q-63 0 -91 77l-2 17v15q0 64 81 93l36 2h197q65 0 93 81v31q0 63 -78 92h-110q-141 0 -208 142q-11 31 -11 51v632q0 82 98 159q53 34 95 34zM204 719v-420q0 -62 80 -91l22 -3
q69 0 99 77l2 21v416q0 64 -78 91l-19 2h-9q-69 0 -95 -76z" />
    <glyph glyph-name="h" unicode="h" 
d="M94 1435h15q63 0 92 -77q4 -18 4 -47v-196q0 -60 79 -88l17 -2h124q82 0 152 -81q38 -55 38 -113v-735q0 -63 -75 -92l-27 -4q-63 0 -94 66q-9 18 -9 60v596q0 66 -77 94l-21 2h-9q-69 0 -96 -77l-2 -17v-600q0 -89 -66 -118l-39 -6q-69 0 -98 79l-2 17v1245q0 64 77 92z
" />
    <glyph glyph-name="i" unicode="i" horiz-adv-x="322" 
d="M112 1313q65 0 94 -83v-33q0 -48 -67 -85l-27 -5h-18q-65 0 -94 84v28q0 66 84 94h28zM103 1030q75 0 101 -86l2 -28v-804q0 -82 -73 -108q-8 -4 -24 -4h-15q-62 0 -92 77l-2 20v834q0 68 82 97z" />
    <glyph glyph-name="j" unicode="j" horiz-adv-x="423" 
d="M215 1311q66 0 95 -84v-33q0 -49 -67 -87l-28 -4h-18q-66 0 -95 85v28q0 66 85 95h28zM208 1025q67 0 98 -78l4 -37v-1144q0 -84 -100 -162q-55 -35 -97 -35h-124q-64 0 -93 78l-2 17v16q0 64 78 93q62 5 80 17q50 36 50 80v1055q0 69 82 98z" />
    <glyph glyph-name="k" unicode="k" 
d="M109 1435q69 0 96 -85v-690q0 -45 23 -45h5q16 0 34 49q158 315 169 329q36 32 70 32h13q69 0 96 -85v-24q0 -29 -75 -166l-117 -237q187 -371 190 -387l2 -17v-13q0 -69 -85 -96h-24q-72 0 -115 117l-160 316l-7 3q-19 0 -19 -45v-295q0 -69 -85 -96h-24q-69 0 -96 85
v1254q0 69 85 96h24z" />
    <glyph glyph-name="l" unicode="l" horiz-adv-x="521" 
d="M96 1435h15q62 0 92 -77l2 -19v-1040q0 -67 85 -92q88 0 116 -70l4 -26v-15q0 -63 -75 -92l-36 -4h-79q-141 0 -209 145q-11 32 -11 51v1128q0 81 73 107q8 4 23 4z" />
    <glyph glyph-name="m" unicode="m" horiz-adv-x="1160" 
d="M194 1023h635q84 0 162 -100q32 -53 32 -92v-735q0 -65 -81 -94l-21 -2q-67 0 -96 72q-7 12 -7 52v598q0 65 -78 92l-20 2h-8q-70 0 -98 -81v-639q0 -65 -81 -94l-21 -2q-71 0 -101 77l-2 19v626q0 65 -79 92l-19 2h-8q-71 0 -98 -81v-609q0 -92 -66 -120l-39 -6
q-68 0 -98 77l-2 19v735q0 85 107 164q51 28 87 28z" />
    <glyph glyph-name="n" unicode="n" 
d="M192 1023h228q88 0 166 -109q28 -50 28 -87v-731q0 -65 -81 -94l-21 -2q-67 0 -96 72q-7 12 -7 52v598q0 65 -79 92l-19 2h-8q-70 0 -96 -76l-2 -18v-596q0 -92 -66 -120l-39 -6q-68 0 -98 77l-2 19v735q0 82 96 158q54 34 96 34z" />
    <glyph glyph-name="o" unicode="o" 
d="M194 1023h226q82 0 160 -98q34 -55 34 -96v-635q0 -87 -107 -164q-50 -30 -106 -30h-192q-112 0 -188 119q-21 45 -21 75v635q0 85 102 162q51 32 92 32zM205 722v-419q0 -67 76 -94l22 -2h8q69 0 96 76l2 18v419q0 67 -77 94l-21 2h-8q-70 0 -96 -76z" />
    <glyph glyph-name="p" unicode="p" horiz-adv-x="721" 
d="M195 1024h226q83 0 160 -98q34 -54 34 -96v-635q0 -87 -106 -165q-49 -29 -113 -29h-101q-61 0 -89 -82v-204q0 -86 -56 -113q-22 -11 -40 -11h-15q-64 0 -92 77l-2 17v1145q0 83 98 160q54 34 96 34zM206 724v-418q0 -69 81 -96l21 -3q70 0 100 77l3 17v423q0 64 -79 91
l-20 2h-8q-69 0 -96 -76z" />
    <glyph glyph-name="q" unicode="q" 
d="M517 990q98 -77 98 -160v-1145l-2 -17q-28 -77 -92 -77h-14q-18 0 -41 11q-55 27 -55 113v204q-29 82 -90 82h-100q-64 0 -113 29q-107 78 -107 165v635q0 42 34 96q78 98 160 98h226q42 0 96 -34zM408 741q-26 76 -96 76h-8l-19 -2q-79 -27 -79 -91v-423l2 -17
q30 -77 100 -77l21 3q82 27 82 96v418z" />
    <glyph glyph-name="r" unicode="r" 
d="M192 1023h324q68 0 96 -81l2 -23q0 -65 -75 -96l-32 -5h-194q-83 0 -108 -78v-627q0 -76 -64 -104q-15 -7 -39 -9q-71 0 -100 79l-2 19v725q0 104 117 179q44 21 75 21z" />
    <glyph glyph-name="s" unicode="s" 
d="M196 1023h325q64 0 92 -77l2 -17v-15q0 -63 -77 -92l-21 -2h-227q-49 0 -81 -75l-2 -19v-11q0 -68 79 -98l34 -2h101q89 0 168 -109q28 -44 28 -132v-126q0 -118 -47 -160q-69 -88 -166 -88h-301q-71 0 -99 75l-4 25q0 69 75 99l25 4h182q95 0 120 64q6 9 10 43
q0 68 -72 98l-11 2h-124q-76 0 -145 71q-60 61 -60 162v190q7 52 45 107q77 83 151 83z" />
    <glyph glyph-name="t" unicode="t" 
d="M109 1431q62 0 91 -75l4 -36v-213q0 -42 60 -74q19 -11 66 -11h187q65 0 94 -81l2 -21q0 -75 -87 -102l-19 -2h-211q-66 0 -92 -83v-443q0 -50 77 -81l24 -2h185q88 0 117 -66l6 -39q0 -68 -76 -98l-20 -2h-278l-45 -2q-57 0 -128 62q-66 69 -66 136v1137q0 68 83 96h26z
" />
    <glyph glyph-name="u" unicode="u" 
d="M94 1023h15q63 0 91 -77q5 -18 5 -47v-603q0 -59 76 -87l22 -2h6q73 0 100 83v609q0 86 56 113q22 11 40 11h15q63 0 92 -77l2 -17v-735q0 -106 -109 -171q-47 -23 -106 -23h-186q-130 0 -202 143q-11 36 -11 53v733q0 64 77 92z" />
    <glyph glyph-name="v" unicode="v" 
d="M109 1023q69 0 96 -85v-586l102 -103l102 103v575q0 69 85 96h24q69 0 96 -85v-637q0 -50 -81 -118q-168 -174 -183 -174q-20 -9 -37 -9h-12q-50 0 -118 81q-174 168 -174 183q-9 20 -9 37v626q0 69 85 96h24z" />
    <glyph glyph-name="w" unicode="w" horiz-adv-x="1171" 
d="M109 1023q69 0 96 -85v-614q0 -119 102 -119t102 119v603q0 67 79 94l17 2h13q66 0 94 -79l2 -17v-601q0 -51 49 -104q25 -17 53 -17q102 0 102 119v603q0 69 86 96h23q69 0 96 -85v-633q0 -150 -126 -254q-82 -51 -168 -51h-21q-105 0 -192 77q-82 -77 -196 -77h-26
q-177 0 -264 171q-30 73 -30 127v629q0 69 85 96h24z" />
    <glyph glyph-name="x" unicode="x" 
d="M95 1019h13q71 0 110 -108l85 -170h4q118 245 127 248q34 30 68 30h19q48 0 85 -66l6 -36q0 -29 -59 -140l-134 -266q189 -375 189 -384l4 -23q0 -70 -78 -100l-26 -4q-78 0 -120 119l-81 161h-4q-118 -244 -127 -248q-38 -32 -74 -32q-70 0 -100 78l-2 19v13
q0 29 74 165l117 236q-188 371 -191 387v26q0 66 78 93z" />
    <glyph glyph-name="y" unicode="y" 
d="M93 1019h15q65 0 93 -81l3 -36v-602q0 -62 80 -91l21 -2q70 0 100 76l2 21v592q0 88 62 115q23 8 38 8h2q77 0 102 -85v-1147q0 -82 -98 -159q-54 -34 -95 -34h-325q-63 0 -91 76l-2 17v15q0 65 81 93l36 2h197q65 0 93 81v32q0 63 -78 91h-113q-141 0 -205 144
q-11 26 -11 49v732q0 63 76 91z" />
    <glyph glyph-name="z" unicode="z" 
d="M516 1019q69 0 95 -85v-23q0 -28 -63 -147l-281 -560h249q69 0 95 -85v-23q0 -69 -85 -96h-430q-69 0 -96 85v23q0 28 64 147l280 560h-248q-69 0 -96 85v23q0 69 85 96h431z" />
    <glyph glyph-name="bar" unicode="|" horiz-adv-x="499" 
d="M208 1421q68 0 95 -85v-1352q0 -68 -85 -95h-23q-68 0 -95 85v1352q0 68 85 95h23z" />
    <glyph glyph-name="exclamdown" unicode="&#xa1;" horiz-adv-x="672" 
d="M185 0q-85 27 -85 95v962q27 85 95 85h23q85 -27 85 -95v-962q-27 -85 -95 -85h-23zM182 1218q-82 28 -82 93v28q28 82 93 82h17l27 -4q66 -37 66 -85v-32q-28 -82 -93 -82h-28z" />
    <glyph glyph-name="yen" unicode="&#xa5;" horiz-adv-x="940" 
d="M95 1424h13q71 0 110 -108l184 -364l2 -2h2q11 6 174 341q51 109 76 118q27 15 49 15h19q48 0 84 -66l7 -36q0 -29 -60 -139q-245 -489 -245 -495v-559q0 -98 -70 -123l-34 -6q-70 0 -99 78l-2 13v592l-301 608l-4 19v19q0 66 78 93zM669 523q70 0 97 -86v-24
q0 -69 -86 -96h-533q-70 0 -97 86v23q0 70 86 97h533zM669 764q70 0 97 -86v-24q0 -69 -86 -96h-533q-70 0 -97 86v23q0 70 86 97h533z" />
    <glyph glyph-name="copyright" unicode="&#xa9;" horiz-adv-x="1580" 
d="M698 1428h32q246 0 462 -182q108 -107 142 -177q94 -168 94 -339v-32q0 -246 -182 -462q-107 -108 -177 -141q-168 -95 -339 -95h-32q-246 0 -462 182q-108 107 -141 177q-95 168 -95 339v32q0 246 182 462q107 108 177 142q168 94 339 94zM168 714q0 -213 154 -380
q170 -166 392 -166q213 0 380 154q166 170 166 392q0 213 -154 380q-170 166 -392 166q-213 0 -380 -154q-166 -170 -166 -392zM704 1218h21q164 0 306 -112q24 -27 24 -59q0 -60 -64 -83l-14 -1h-11q-27 0 -84 42q-81 45 -168 45q-157 0 -266 -131q-70 -95 -70 -205
q0 -157 131 -266q95 -70 205 -70q103 0 203 67l26 5h11q55 0 79 -67l1 -17q0 -69 -122 -116q-94 -40 -187 -40h-21q-218 0 -384 187q-110 147 -110 307v21q0 217 187 383q147 110 307 110z" />
    <glyph glyph-name="registered" unicode="&#xae;" horiz-adv-x="1580" 
d="M698 1428h32q246 0 462 -182q108 -107 142 -177q94 -168 94 -339v-32q0 -246 -182 -462q-107 -108 -177 -141q-168 -95 -339 -95h-32q-246 0 -462 182q-108 107 -141 177q-95 168 -95 339v32q0 246 182 462q107 108 177 142q168 94 339 94zM168 714q0 -213 154 -380
q170 -166 392 -166q213 0 380 154q166 170 166 392q0 213 -154 380q-170 166 -392 166q-213 0 -380 -154q-166 -170 -166 -392zM799 1165q88 0 150 -66q37 -46 37 -100v-138q0 -82 -58 -149q-53 -53 -125 -53h-31v-1l210 -290l4 -21v-8q0 -42 -53 -59h-14q-36 0 -65 50
l-241 329h-7v-320q0 -42 -52 -59h-15q-42 0 -59 53v773q0 42 53 59h266zM606 958v-89q0 -58 23 -69q15 -14 58 -14h98q37 0 49 12q25 27 25 81v105q0 38 -22 44q-21 11 -50 11h-94q-59 0 -68 -19q-19 -14 -19 -62z" />
    <glyph glyph-name="degree" unicode="&#xb0;" horiz-adv-x="674" 
d="M327 1396h9q117 0 170 -128q7 -24 7 -49v-9q0 -117 -128 -170q-24 -7 -49 -7h-9q-117 0 -170 128q-7 24 -7 49v9q0 117 128 170q24 7 49 7zM276 1212q0 -45 58 -53q45 0 53 58q0 45 -58 53q-45 0 -53 -58z" />
    <glyph glyph-name="plusminus" unicode="&#xb1;" horiz-adv-x="1014" 
d="M458 1014q86 0 120 -107v-214h201q86 0 120 -107v-30q0 -86 -107 -120h-214v-201q0 -86 -107 -120h-30q-86 0 -120 107v214h-201q-86 0 -120 107v30q0 86 107 120h214v201q0 86 107 120h30zM779 253q86 0 120 -107v-30q0 -86 -107 -120h-672q-86 0 -120 107v30
q0 86 107 120h672z" />
    <glyph glyph-name="uni00B2" unicode="&#xb2;" horiz-adv-x="439" 
d="M231 1424q42 0 67 -41q7 -17 7 -31v-159q0 -42 -41 -67q-17 -7 -32 -7h-107q-40 0 -47 -25l-2 -24v-103h193q26 0 36 -31v-9q0 -26 -32 -36h-201q-46 0 -68 50q-4 15 -4 24v158q0 47 50 69q15 4 24 4h106q39 0 47 25l1 27v51q0 40 -25 47l-27 2h-140q-26 0 -36 31v9
q0 26 32 36h199z" />
    <glyph glyph-name="uni00B3" unicode="&#xb3;" horiz-adv-x="439" 
d="M187 1424q55 0 92 -46q19 -30 19 -61v-119q0 -30 -25 -55v-1q25 -10 25 -32v-100q0 -70 -62 -100q-15 -6 -37 -8l-32 1h-132q-25 0 -35 31v8q0 25 31 35h161q25 0 29 19q2 10 2 26v53q0 35 -10 40q-9 11 -37 11h-141q-25 0 -35 31v9q0 25 31 35h141q35 0 41 10
q10 9 10 37v58q0 28 -11 35q-13 9 -32 9h-145q-25 0 -35 31v8q0 25 31 35h156z" />
    <glyph glyph-name="mu" unicode="&#xb5;" horiz-adv-x="719" 
d="M87 1020h15q63 0 91 -81l2 -36v-580q0 -119 100 -119t100 119v601q0 69 83 96h23q67 0 93 -85v-941q0 -69 -83 -96h-23q-67 0 -93 85v30h-2q-48 -13 -86 -13h-24q-36 0 -88 13v-296q0 -91 -64 -119l-37 -6q-67 0 -96 77l-2 19v1239q0 63 75 91z" />
    <glyph glyph-name="periodcentered" unicode="&#xb7;" horiz-adv-x="499" 
d="M210 673q65 0 93 -82v-32q0 -48 -66 -85l-27 -4h-17q-65 0 -93 82v28q0 65 82 93h28z" />
    <glyph glyph-name="periodcentered" unicode="&#x2219;" horiz-adv-x="499" 
d="M210 673q65 0 93 -82v-32q0 -48 -66 -85l-27 -4h-17q-65 0 -93 82v28q0 65 82 93h28z" />
    <glyph glyph-name="questiondown" unicode="&#xbf;" horiz-adv-x="940" 
d="M429 0h-34q-196 0 -327 159q-68 98 -68 200q0 120 152 300q16 29 159 191v150q0 84 69 112l28 4h13q63 0 93 -78l2 -19v-241q0 -10 -53 -64q-251 -286 -258 -350v-9q0 -75 91 -127q51 -25 120 -25q141 0 184 99q17 51 17 91l-2 13q0 69 78 99l19 2h13q64 0 93 -78l2 -19
v-34q0 -169 -135 -294q-114 -82 -256 -82zM410 1219q-65 0 -93 82v32q0 48 66 85l27 4h17q65 0 93 -82v-28q0 -65 -82 -93h-28z" />
    <glyph glyph-name="Agrave" unicode="&#xc0;" horiz-adv-x="962" 
d="M194 1435h427q114 0 180 -111q19 -45 19 -83v-1145q0 -69 -85 -96h-24q-69 0 -96 85v389q0 97 -30 111q-23 30 -100 30h-139q-97 0 -111 -30q-30 -23 -30 -100v-389q0 -69 -85 -96h-24q-69 0 -96 85v1151q0 114 111 180q45 19 83 19zM205 1100v-145q0 -93 36 -112
q25 -23 94 -23h139q97 0 111 30q30 23 30 100v139q0 97 -30 111q-23 30 -100 30h-139q-97 0 -111 -30q-30 -23 -30 -100zM323 1785q15 0 120 -93q55 -37 55 -78v-18q-21 -66 -74 -66h-10q-12 0 -19 3q-15 0 -120 93q-55 37 -55 78v18q21 66 74 66h10q12 0 19 -3z" />
    <glyph glyph-name="Aacute" unicode="&#xc1;" horiz-adv-x="962" 
d="M194 1435h427q114 0 180 -111q19 -45 19 -83v-1145q0 -69 -85 -96h-24q-69 0 -96 85v389q0 97 -30 111q-23 30 -100 30h-139q-97 0 -111 -30q-30 -23 -30 -100v-389q0 -69 -85 -96h-24q-69 0 -96 85v1151q0 114 111 180q45 19 83 19zM205 1100v-145q0 -93 36 -112
q25 -23 94 -23h139q97 0 111 30q30 23 30 100v139q0 97 -30 111q-23 30 -100 30h-139q-97 0 -111 -30q-30 -23 -30 -100zM514 1788h10q53 0 74 -66v-18q0 -41 -55 -78q-105 -93 -120 -93q-7 -3 -19 -3h-10q-53 0 -74 66v18q0 41 55 78q105 93 120 93q7 3 19 3z" />
    <glyph glyph-name="Acircumflex" unicode="&#xc2;" horiz-adv-x="962" 
d="M194 1435h427q114 0 180 -111q19 -45 19 -83v-1145q0 -69 -85 -96h-24q-69 0 -96 85v389q0 97 -30 111q-23 30 -100 30h-139q-97 0 -111 -30q-30 -23 -30 -100v-389q0 -69 -85 -96h-24q-69 0 -96 85v1151q0 114 111 180q45 19 83 19zM205 1100v-145q0 -93 36 -112
q25 -23 94 -23h139q97 0 111 30q30 23 30 100v139q0 97 -30 111q-23 30 -100 30h-139q-97 0 -111 -30q-30 -23 -30 -100zM429 1772q21 0 121 -65q95 -49 95 -88l2 -12q-12 -81 -81 -81q-26 0 -113 56q-27 18 -34 18q-112 -72 -131 -72l-12 -2q-77 15 -77 76v7q0 49 69 82
q123 81 143 81h18z" />
    <glyph glyph-name="Atilde" unicode="&#xc3;" horiz-adv-x="962" 
d="M194 1435h427q114 0 180 -111q19 -45 19 -83v-1145q0 -69 -85 -96h-24q-69 0 -96 85v389q0 97 -30 111q-23 30 -100 30h-139q-97 0 -111 -30q-30 -23 -30 -100v-389q0 -69 -85 -96h-24q-69 0 -96 85v1151q0 114 111 180q45 19 83 19zM205 1100v-145q0 -93 36 -112
q25 -23 94 -23h139q97 0 111 30q30 23 30 100v139q0 97 -30 111q-23 30 -100 30h-139q-97 0 -111 -30q-30 -23 -30 -100zM238 1538q-58 20 -58 69v6l2 17q70 144 161 144h2q52 0 150 -83l13 14q33 69 81 69l15 -2q60 -19 60 -71l-4 -23q-72 -140 -155 -140h-15
q-42 0 -143 82l-13 -15q-31 -67 -79 -67h-17z" />
    <glyph glyph-name="Adieresis" unicode="&#xc4;" horiz-adv-x="962" 
d="M194 1435h427q114 0 180 -111q19 -45 19 -83v-1145q0 -69 -85 -96h-24q-69 0 -96 85v389q0 97 -30 111q-23 30 -100 30h-139q-97 0 -111 -30q-30 -23 -30 -100v-389q0 -69 -85 -96h-24q-69 0 -96 85v1151q0 114 111 180q45 19 83 19zM205 1100v-145q0 -93 36 -112
q25 -23 94 -23h139q97 0 111 30q30 23 30 100v139q0 97 -30 111q-23 30 -100 30h-139q-97 0 -111 -30q-30 -23 -30 -100zM264 1702q54 0 76 -65l1 -27q0 -66 -62 -86l-32 -3q-62 0 -84 57l-3 20v28q0 55 67 76h37zM556 1702h29q53 0 75 -64l2 -18v-15q0 -59 -60 -81l-31 -3
q-60 0 -84 48q-6 19 -6 31v21q0 57 62 79z" />
    <glyph glyph-name="Aring" unicode="&#xc5;" horiz-adv-x="962" 
d="M194 1435h427q114 0 180 -111q19 -45 19 -83v-1145q0 -69 -85 -96h-24q-69 0 -96 85v389q0 97 -30 111q-23 30 -100 30h-139q-97 0 -111 -30q-30 -23 -30 -100v-389q0 -69 -85 -96h-24q-69 0 -96 85v1151q0 114 111 180q45 19 83 19zM205 1100v-145q0 -93 36 -112
q25 -23 94 -23h139q97 0 111 30q30 23 30 100v139q0 97 -30 111q-23 30 -100 30h-139q-97 0 -111 -30q-30 -23 -30 -100zM413 1606h8q95 0 137 -104q6 -19 6 -39v-8q0 -95 -104 -137q-19 -6 -39 -6h-8q-95 0 -137 104q-6 19 -6 39v8q0 95 104 137q19 6 39 6zM372 1457
q0 -36 47 -43q36 0 43 47q0 36 -47 43q-36 0 -43 -47z" />
    <glyph glyph-name="AE" unicode="&#xc6;" horiz-adv-x="1549" 
d="M194 1435h427q114 0 180 -111q19 -45 19 -83v-1145q0 -69 -85 -96h-24q-69 0 -96 85v389q0 97 -30 111q-23 30 -100 30h-139q-97 0 -111 -30q-30 -23 -30 -100v-389q0 -69 -85 -96h-24q-69 0 -96 85v1151q0 114 111 180q45 19 83 19zM205 1100v-145q0 -93 36 -112
q25 -23 94 -23h139q97 0 111 30q30 23 30 100v139q0 97 -30 111q-23 30 -100 30h-139q-97 0 -111 -30q-30 -23 -30 -100zM819 1435h525q69 0 96 -85v-24q0 -69 -85 -96h-389q-97 0 -111 -30q-30 -23 -30 -100v-145q0 -93 36 -112q25 -23 94 -23h286q70 0 97 -85v-24
q0 -69 -86 -96h-286q-97 0 -111 -30q-30 -23 -30 -100v-145q0 -93 36 -112q25 -23 94 -23h389q69 0 96 -85v-24q0 -69 -85 -96h-541q-125 0 -183 135q-11 39 -11 64v1042q0 125 135 183q39 11 64 11z" />
    <glyph glyph-name="Ccedilla" unicode="&#xc7;" horiz-adv-x="962" 
d="M199 1435h525q69 0 96 -85v-24q0 -69 -85 -96h-389q-97 0 -111 -30q-30 -23 -30 -100v-760q0 -93 36 -111q25 -24 94 -24h389q69 0 96 -85v-24q0 -69 -85 -96h-541q-125 0 -183 135q-11 39 -11 64v1042q0 125 135 184q39 10 64 10zM446 79h9q48 0 68 -58l1 -14
q0 -27 -48 -92q66 -55 66 -111q0 -80 -111 -129q-27 -9 -48 -9h-9q-47 0 -66 57l-1 14v2q0 54 61 71h8q-34 30 -90 66l-6 6q109 166 123 179q21 18 43 18z" />
    <glyph glyph-name="Egrave" unicode="&#xc8;" horiz-adv-x="962" 
d="M199 1435h525q69 0 96 -85v-24q0 -69 -85 -96h-389q-97 0 -111 -30q-30 -23 -30 -100v-145q0 -93 36 -112q25 -23 94 -23h286q70 0 97 -85v-24q0 -69 -86 -96h-286q-97 0 -111 -30q-30 -23 -30 -100v-145q0 -93 36 -112q25 -23 94 -23h389q69 0 96 -85v-24q0 -69 -85 -96
h-541q-125 0 -183 135q-11 39 -11 64v1042q0 125 135 183q39 11 64 11zM323 1785q15 0 120 -93q55 -37 55 -78v-18q-21 -66 -74 -66h-10q-12 0 -19 3q-15 0 -120 93q-55 37 -55 78v18q21 66 74 66h10q12 0 19 -3z" />
    <glyph glyph-name="Eacute" unicode="&#xc9;" horiz-adv-x="962" 
d="M199 1435h525q69 0 96 -85v-24q0 -69 -85 -96h-389q-97 0 -111 -30q-30 -23 -30 -100v-145q0 -93 36 -112q25 -23 94 -23h286q70 0 97 -85v-24q0 -69 -86 -96h-286q-97 0 -111 -30q-30 -23 -30 -100v-145q0 -93 36 -112q25 -23 94 -23h389q69 0 96 -85v-24q0 -69 -85 -96
h-541q-125 0 -183 135q-11 39 -11 64v1042q0 125 135 183q39 11 64 11zM514 1788h10q53 0 74 -66v-18q0 -41 -55 -78q-105 -93 -120 -93q-7 -3 -19 -3h-10q-53 0 -74 66v18q0 41 55 78q105 93 120 93q7 3 19 3z" />
    <glyph glyph-name="Ecircumflex" unicode="&#xca;" horiz-adv-x="962" 
d="M199 1435h525q69 0 96 -85v-24q0 -69 -85 -96h-389q-97 0 -111 -30q-30 -23 -30 -100v-145q0 -93 36 -112q25 -23 94 -23h286q70 0 97 -85v-24q0 -69 -86 -96h-286q-97 0 -111 -30q-30 -23 -30 -100v-145q0 -93 36 -112q25 -23 94 -23h389q69 0 96 -85v-24q0 -69 -85 -96
h-541q-125 0 -183 135q-11 39 -11 64v1042q0 125 135 183q39 11 64 11zM429 1772q21 0 121 -65q95 -49 95 -88l2 -12q-12 -81 -81 -81q-26 0 -113 56q-27 18 -34 18q-112 -72 -131 -72l-12 -2q-77 15 -77 76v7q0 49 69 82q123 81 143 81h18z" />
    <glyph glyph-name="Edieresis" unicode="&#xcb;" horiz-adv-x="1151" 
d="M264 1702q54 0 76 -65l1 -27q0 -66 -62 -86l-32 -3q-62 0 -84 57l-3 20v28q0 55 67 76h37zM556 1702h29q53 0 75 -64l2 -18v-15q0 -59 -60 -81l-31 -3q-60 0 -84 48q-6 19 -6 31v21q0 57 62 79zM199 1435h525q69 0 96 -85v-24q0 -69 -85 -96h-389q-97 0 -111 -30
q-30 -23 -30 -100v-145q0 -93 36 -112q25 -23 94 -23h286q70 0 97 -85v-24q0 -69 -86 -96h-286q-97 0 -111 -30q-30 -23 -30 -100v-145q0 -93 36 -112q25 -23 94 -23h389q69 0 96 -85v-24q0 -69 -85 -96h-541q-125 0 -183 135q-11 39 -11 64v1042q0 125 135 183q39 11 64 11
z" />
    <glyph glyph-name="Igrave" unicode="&#xcc;" horiz-adv-x="330" 
d="M109 1435q69 0 96 -85v-1254q0 -69 -85 -96h-24q-69 0 -96 85v1254q0 69 85 96h24zM-17 1785q15 0 120 -93q55 -37 55 -78v-18q-21 -66 -74 -66h-10q-12 0 -19 3q-15 0 -120 93q-55 37 -55 78v18q21 66 74 66h10q12 0 19 -3z" />
    <glyph glyph-name="Iacute" unicode="&#xcd;" horiz-adv-x="330" 
d="M109 1435q69 0 96 -85v-1254q0 -69 -85 -96h-24q-69 0 -96 85v1254q0 69 85 96h24zM184 1788h10q53 0 74 -66v-18q0 -41 -55 -78q-105 -93 -120 -93q-7 -3 -19 -3h-10q-53 0 -74 66v18q0 41 55 78q105 93 120 93q7 3 19 3z" />
    <glyph glyph-name="Icircumflex" unicode="&#xce;" horiz-adv-x="330" 
d="M109 1435q69 0 96 -85v-1254q0 -69 -85 -96h-24q-69 0 -96 85v1254q0 69 85 96h24zM119 1772q21 0 121 -65q95 -49 95 -88l2 -12q-12 -81 -81 -81q-26 0 -113 56q-27 18 -34 18q-112 -72 -131 -72l-12 -2q-77 15 -77 76v7q0 49 69 82q123 81 143 81h18z" />
    <glyph glyph-name="Idieresis" unicode="&#xcf;" horiz-adv-x="330" 
d="M109 1435q69 0 96 -85v-1254q0 -69 -85 -96h-24q-69 0 -96 85v1254q0 69 85 96h24zM-36 1702q54 0 76 -65l1 -27q0 -66 -62 -86l-32 -3q-62 0 -84 57l-3 20v28q0 55 67 76h37zM256 1702h29q53 0 75 -64l2 -18v-15q0 -59 -60 -81l-31 -3q-60 0 -84 48q-6 19 -6 31v21
q0 57 62 79z" />
    <glyph glyph-name="Eth" unicode="&#xd0;" horiz-adv-x="1160" 
d="M715 1435q150 0 254 -126q51 -82 51 -169v-835q0 -150 -126 -254q-82 -51 -169 -51h-429q-69 0 -96 85v1254q0 69 85 96h430zM405 1230v-1025h290q78 0 97 32q23 35 23 88v785q0 78 -32 97q-35 23 -88 23h-290zM581 812q85 0 102 -105q0 -65 -70 -96q-16 -8 -51 -8h-444
q-89 0 -115 77l-3 25v8q0 70 83 99h498z" />
    <glyph glyph-name="Ntilde" unicode="&#xd1;" horiz-adv-x="940" 
d="M95 1424h13q70 0 108 -104l391 -783h2v794q0 62 77 91l12 2h26q48 0 84 -66l5 -27v-1240q0 -48 -66 -85l-36 -6q-77 0 -116 110l-390 779h-2v-794q0 -65 -82 -93h-28q-65 0 -93 83v1250q0 46 59 81q18 8 36 8zM238 1538q-58 20 -58 69v6l2 17q70 144 161 144h2
q52 0 150 -83l13 14q33 69 81 69l15 -2q60 -19 60 -71l-4 -23q-72 -140 -155 -140h-15q-42 0 -143 82l-13 -15q-31 -67 -79 -67h-17z" />
    <glyph glyph-name="Ograve" unicode="&#xd2;" horiz-adv-x="940" 
d="M191 1424h432q118 0 178 -127q13 -44 13 -64v-1042q0 -118 -127 -178q-45 -13 -64 -13h-432q-118 0 -178 127q-13 44 -13 64v1042q0 118 127 178q44 13 64 13zM203 1091v-754q0 -92 36 -110q25 -24 94 -24h137q96 0 111 30q29 23 29 100v748q0 97 -31 112q-27 25 -66 25
h-221q-59 0 -84 -72zM323 1785q15 0 120 -93q55 -37 55 -78v-18q-21 -66 -74 -66h-10q-12 0 -19 3q-15 0 -120 93q-55 37 -55 78v18q21 66 74 66h10q12 0 19 -3z" />
    <glyph glyph-name="Oacute" unicode="&#xd3;" horiz-adv-x="940" 
d="M191 1424h432q118 0 178 -127q13 -44 13 -64v-1042q0 -118 -127 -178q-45 -13 -64 -13h-432q-118 0 -178 127q-13 44 -13 64v1042q0 118 127 178q44 13 64 13zM203 1091v-754q0 -92 36 -110q25 -24 94 -24h137q96 0 111 30q29 23 29 100v748q0 97 -31 112q-27 25 -66 25
h-221q-59 0 -84 -72zM514 1788h10q53 0 74 -66v-18q0 -41 -55 -78q-105 -93 -120 -93q-7 -3 -19 -3h-10q-53 0 -74 66v18q0 41 55 78q105 93 120 93q7 3 19 3z" />
    <glyph glyph-name="Ocircumflex" unicode="&#xd4;" horiz-adv-x="940" 
d="M191 1424h432q118 0 178 -127q13 -44 13 -64v-1042q0 -118 -127 -178q-45 -13 -64 -13h-432q-118 0 -178 127q-13 44 -13 64v1042q0 118 127 178q44 13 64 13zM203 1091v-754q0 -92 36 -110q25 -24 94 -24h137q96 0 111 30q29 23 29 100v748q0 97 -31 112q-27 25 -66 25
h-221q-59 0 -84 -72zM429 1772q21 0 121 -65q95 -49 95 -88l2 -12q-12 -81 -81 -81q-26 0 -113 56q-27 18 -34 18q-112 -72 -131 -72l-12 -2q-77 15 -77 76v7q0 49 69 82q123 81 143 81h18z" />
    <glyph glyph-name="Otilde" unicode="&#xd5;" horiz-adv-x="940" 
d="M191 1424h432q118 0 178 -127q13 -44 13 -64v-1042q0 -118 -127 -178q-45 -13 -64 -13h-432q-118 0 -178 127q-13 44 -13 64v1042q0 118 127 178q44 13 64 13zM203 1091v-754q0 -92 36 -110q25 -24 94 -24h137q96 0 111 30q29 23 29 100v748q0 97 -31 112q-27 25 -66 25
h-221q-59 0 -84 -72zM238 1538q-58 20 -58 69v6l2 17q70 144 161 144h2q52 0 150 -83l13 14q33 69 81 69l15 -2q60 -19 60 -71l-4 -23q-72 -140 -155 -140h-15q-42 0 -143 82l-13 -15q-31 -67 -79 -67h-17z" />
    <glyph glyph-name="Odieresis" unicode="&#xd6;" horiz-adv-x="940" 
d="M191 1424h432q118 0 178 -127q13 -44 13 -64v-1042q0 -118 -127 -178q-45 -13 -64 -13h-432q-118 0 -178 127q-13 44 -13 64v1042q0 118 127 178q44 13 64 13zM203 1091v-754q0 -92 36 -110q25 -24 94 -24h137q96 0 111 30q29 23 29 100v748q0 97 -31 112q-27 25 -66 25
h-221q-59 0 -84 -72zM264 1702q54 0 76 -65l1 -27q0 -66 -62 -86l-32 -3q-62 0 -84 57l-3 20v28q0 55 67 76h37zM556 1702h29q53 0 75 -64l2 -18v-15q0 -59 -60 -81l-31 -3q-60 0 -84 48q-6 19 -6 31v21q0 57 62 79z" />
    <glyph glyph-name="Oslash" unicode="&#xd8;" horiz-adv-x="1099" 
d="M841 1534h12q70 0 97 -85v-24q0 -33 -64 -133l-39 -69v-1034q0 -114 -112 -180q-44 -20 -83 -20h-429q-33 0 -73 15q-33 -74 -73 -105q-30 -13 -48 -13h-12q-70 0 -97 86v24q0 33 64 133l39 69v1034q0 114 112 180q44 19 83 19h429q33 0 73 -15q34 75 73 106q30 12 48 12
zM229 1090v-530h2l367 644v2q-12 19 -99 19h-139q-106 0 -127 -68zM639 861l-367 -646v-2q19 -18 99 -18h139q106 0 127 69l4 73v524h-2z" />
    <glyph glyph-name="Ugrave" unicode="&#xd9;" horiz-adv-x="940" 
d="M110 1423q65 0 93 -83v-1003q0 -92 36 -110q25 -24 93 -24h138q96 0 110 30q30 23 30 99v998q0 64 82 93h28q65 0 93 -83v-1149q0 -118 -127 -178q-44 -13 -64 -13h-431q-118 0 -178 127q-13 44 -13 64v1139q0 64 83 93h27zM323 1785q15 0 120 -93q55 -37 55 -78v-18
q-21 -66 -74 -66h-10q-12 0 -19 3q-15 0 -120 93q-55 37 -55 78v18q21 66 74 66h10q12 0 19 -3z" />
    <glyph glyph-name="Uacute" unicode="&#xda;" horiz-adv-x="940" 
d="M110 1423q65 0 93 -83v-1003q0 -92 36 -110q25 -24 93 -24h138q96 0 110 30q30 23 30 99v998q0 64 82 93h28q65 0 93 -83v-1149q0 -118 -127 -178q-44 -13 -64 -13h-431q-118 0 -178 127q-13 44 -13 64v1139q0 64 83 93h27zM514 1788h10q53 0 74 -66v-18q0 -41 -55 -78
q-105 -93 -120 -93q-7 -3 -19 -3h-10q-53 0 -74 66v18q0 41 55 78q105 93 120 93q7 3 19 3z" />
    <glyph glyph-name="Ucircumflex" unicode="&#xdb;" horiz-adv-x="940" 
d="M110 1423q65 0 93 -83v-1003q0 -92 36 -110q25 -24 93 -24h138q96 0 110 30q30 23 30 99v998q0 64 82 93h28q65 0 93 -83v-1149q0 -118 -127 -178q-44 -13 -64 -13h-431q-118 0 -178 127q-13 44 -13 64v1139q0 64 83 93h27zM429 1772q21 0 121 -65q95 -49 95 -88l2 -12
q-12 -81 -81 -81q-26 0 -113 56q-27 18 -34 18q-112 -72 -131 -72l-12 -2q-77 15 -77 76v7q0 49 69 82q123 81 143 81h18z" />
    <glyph glyph-name="Udieresis" unicode="&#xdc;" horiz-adv-x="940" 
d="M110 1423q65 0 93 -83v-1003q0 -92 36 -110q25 -24 93 -24h138q96 0 110 30q30 23 30 99v998q0 64 82 93h28q65 0 93 -83v-1149q0 -118 -127 -178q-44 -13 -64 -13h-431q-118 0 -178 127q-13 44 -13 64v1139q0 64 83 93h27zM264 1702q54 0 76 -65l1 -27q0 -66 -62 -86
l-32 -3q-62 0 -84 57l-3 20v28q0 55 67 76h37zM556 1702h29q53 0 75 -64l2 -18v-15q0 -59 -60 -81l-31 -3q-60 0 -84 48q-6 19 -6 31v21q0 57 62 79z" />
    <glyph glyph-name="Yacute" unicode="&#xdd;" horiz-adv-x="940" 
d="M95 1424h13q71 0 110 -108l184 -364l2 -2h2q11 6 174 341q51 109 76 118q27 15 49 15h19q48 0 84 -66l7 -36q0 -29 -60 -139q-245 -489 -245 -495v-559q0 -98 -70 -123l-34 -6q-70 0 -99 78l-2 13v592l-301 608l-4 19v19q0 66 78 93zM514 1788h10q53 0 74 -66v-18
q0 -41 -55 -78q-105 -93 -120 -93q-7 -3 -19 -3h-10q-53 0 -74 66v18q0 41 55 78q105 93 120 93q7 3 19 3z" />
    <glyph glyph-name="Thorn" unicode="&#xde;" horiz-adv-x="940" 
d="M515 1124q145 0 246 -112q53 -77 53 -153v-231q0 -112 -81 -220q-59 -68 -150 -91q-40 -9 -132 -9h-159q-59 0 -84 -72l-5 -55v-92q0 -48 -65 -85l-28 -4h-17q-65 0 -93 83v948q0 65 83 93h432zM203 791v-144q0 -92 36 -110q25 -23 94 -23h137q102 0 111 34q29 37 29 125
v140q0 72 -19 80q-28 21 -72 25h-227q-59 0 -84 -72zM83 310q-83 28 -83 93v948q28 83 93 83h17l28 -4q65 -37 65 -85v-92l5 -55q25 -72 84 -72h159q92 0 132 -9q91 -23 150 -91q81 -108 81 -220v-231q0 -76 -53 -153q-101 -112 -246 -112h-432zM208 588q25 -72 84 -72h227
q44 4 72 25q19 8 19 80v140q0 88 -29 125q-9 34 -111 34h-137q-69 0 -94 -23q-36 -18 -36 -110v-144z" />
    <glyph glyph-name="germandbls" unicode="&#xdf;" horiz-adv-x="799" 
d="M416 1420q113 0 179 -111q19 -48 19 -75l2 -322q0 -47 -51 -100v-2q70 0 98 -81l2 -17v-497q0 -149 -134 -204q-33 -11 -64 -11h-115q-69 0 -96 85v24q0 69 85 96h45q72 26 72 70v239q0 69 -66 89h-47q-81 0 -102 92l-2 10q0 48 70 122q98 118 98 124v245q0 19 -25 19
h-179v-1119q0 -69 -86 -96h-23q-69 0 -96 85v1239q0 69 85 96h331z" />
    <glyph glyph-name="agrave" unicode="&#xe0;" 
d="M412 0h-209q-108 0 -184 124q-19 41 -19 70v217q0 103 115 179q43 26 109 26h94q64 0 89 77l2 21q0 73 -83 102l-47 2h-177q-71 0 -100 79l-2 19v9q0 65 75 94q9 4 27 4h303q116 0 188 -121q21 -43 21 -77v-608q0 -142 -149 -208q-29 -9 -53 -9zM405 303v8q0 73 -81 98
l-21 2q-68 0 -96 -79l-2 -21v-6q0 -79 94 -100h6q69 0 98 78zM223 1385q15 0 120 -93q55 -37 55 -78v-18q-21 -66 -74 -66h-10q-12 0 -19 3q-15 0 -120 93q-55 37 -55 78v18q21 66 74 66h10q12 0 19 -3z" />
    <glyph glyph-name="aacute" unicode="&#xe1;" 
d="M412 0h-209q-108 0 -184 124q-19 41 -19 70v217q0 103 115 179q43 26 109 26h94q64 0 89 77l2 21q0 73 -83 102l-47 2h-177q-71 0 -100 79l-2 19v9q0 65 75 94q9 4 27 4h303q116 0 188 -121q21 -43 21 -77v-608q0 -142 -149 -208q-29 -9 -53 -9zM405 303v8q0 73 -81 98
l-21 2q-68 0 -96 -79l-2 -21v-6q0 -79 94 -100h6q69 0 98 78zM414 1388h10q53 0 74 -66v-18q0 -41 -55 -78q-105 -93 -120 -93q-7 -3 -19 -3h-10q-53 0 -74 66v18q0 41 55 78q105 93 120 93q7 3 19 3z" />
    <glyph glyph-name="acircumflex" unicode="&#xe2;" 
d="M412 0h-209q-108 0 -184 124q-19 41 -19 70v217q0 103 115 179q43 26 109 26h94q64 0 89 77l2 21q0 73 -83 102l-47 2h-177q-71 0 -100 79l-2 19v9q0 65 75 94q9 4 27 4h303q116 0 188 -121q21 -43 21 -77v-608q0 -142 -149 -208q-29 -9 -53 -9zM405 303v8q0 73 -81 98
l-21 2q-68 0 -96 -79l-2 -21v-6q0 -79 94 -100h6q69 0 98 78zM329 1372q21 0 121 -65q95 -49 95 -88l2 -12q-12 -81 -81 -81q-26 0 -113 56q-27 18 -34 18q-112 -72 -131 -72l-12 -2q-77 15 -77 76v7q0 49 69 82q123 81 143 81h18z" />
    <glyph glyph-name="atilde" unicode="&#xe3;" 
d="M412 0h-209q-108 0 -184 124q-19 41 -19 70v217q0 103 115 179q43 26 109 26h94q64 0 89 77l2 21q0 73 -83 102l-47 2h-177q-71 0 -100 79l-2 19v9q0 65 75 94q9 4 27 4h303q116 0 188 -121q21 -43 21 -77v-608q0 -142 -149 -208q-29 -9 -53 -9zM405 303v8q0 73 -81 98
l-21 2q-68 0 -96 -79l-2 -21v-6q0 -79 94 -100h6q69 0 98 78zM138 1138q-58 20 -58 69v6l2 17q70 144 161 144h2q52 0 150 -83l13 14q33 69 81 69l15 -2q60 -19 60 -71l-4 -23q-72 -140 -155 -140h-15q-42 0 -143 82l-13 -15q-31 -67 -79 -67h-17z" />
    <glyph glyph-name="adieresis" unicode="&#xe4;" 
d="M412 0h-209q-108 0 -184 124q-19 41 -19 70v217q0 103 115 179q43 26 109 26h94q64 0 89 77l2 21q0 73 -83 102l-47 2h-177q-71 0 -100 79l-2 19v9q0 65 75 94q9 4 27 4h303q116 0 188 -121q21 -43 21 -77v-608q0 -142 -149 -208q-29 -9 -53 -9zM405 303v8q0 73 -81 98
l-21 2q-68 0 -96 -79l-2 -21v-6q0 -79 94 -100h6q69 0 98 78zM164 1302q54 0 76 -65l1 -27q0 -66 -62 -86l-32 -3q-62 0 -84 57l-3 20v28q0 55 67 76h37zM456 1302h29q53 0 75 -64l2 -18v-15q0 -59 -60 -81l-31 -3q-60 0 -84 48q-6 19 -6 31v21q0 57 62 79z" />
    <glyph glyph-name="aring" unicode="&#xe5;" 
d="M412 0h-209q-108 0 -184 124q-19 41 -19 70v217q0 103 115 179q43 26 109 26h94q64 0 89 77l2 21q0 73 -83 102l-47 2h-177q-71 0 -100 79l-2 19v9q0 65 75 94q9 4 27 4h303q116 0 188 -121q21 -43 21 -77v-608q0 -142 -149 -208q-29 -9 -53 -9zM405 303v8q0 73 -81 98
l-21 2q-68 0 -96 -79l-2 -21v-6q0 -79 94 -100h6q69 0 98 78zM293 1376h8q95 0 137 -104q6 -19 6 -39v-8q0 -95 -104 -137q-19 -6 -39 -6h-8q-95 0 -137 104q-6 19 -6 39v8q0 95 104 137q19 6 39 6zM252 1227q0 -36 47 -43q36 0 43 47q0 36 -47 43q-36 0 -43 -47z" />
    <glyph glyph-name="ae" unicode="&#xe6;" horiz-adv-x="1454" 
d="M412 0h-209q-108 0 -184 124q-19 41 -19 70v217q0 103 115 179q43 26 109 26h94q64 0 89 77l2 21q0 73 -83 102l-47 2h-177q-71 0 -100 79l-2 19v9q0 65 75 94q9 4 27 4h303q116 0 188 -121q21 -43 21 -77v-608q0 -142 -149 -208q-29 -9 -53 -9zM405 303v8q0 73 -81 98
l-21 2q-68 0 -96 -79l-2 -21v-6q0 -79 94 -100h6q69 0 98 78zM602 1023h209q108 0 184 -124q19 -41 19 -70v-217q0 -103 -115 -179q-43 -26 -109 -26h-94q-64 0 -89 -77l-2 -21q0 -73 83 -102l47 -2h177q71 0 100 -79l2 -19v-9q0 -65 -75 -94q-9 -4 -27 -4h-503q84 0 12 121
q-21 43 -21 77v608q0 142 -51 208q229 9 253 9zM609 720v-8q0 -73 81 -98l21 -2q68 0 96 79l2 21v6q0 79 -94 100h-6q-69 0 -98 -78z" />
    <glyph glyph-name="ccedilla" unicode="&#xe7;" 
d="M193 1019h321q68 0 95 -81l2 -23q0 -65 -74 -96l-32 -4h-193q-83 0 -108 -78v-448q0 -49 72 -81q25 -4 64 -4h172q69 0 97 -81l2 -21q0 -71 -76 -98q-8 -4 -23 -4h-304q-121 0 -193 132q-15 38 -15 61v633q0 82 98 159q54 34 95 34zM353 59h6q33 0 46 -39l1 -9
q0 -19 -33 -64q45 -36 45 -75q0 -54 -75 -87q-19 -6 -33 -6h-6q-32 0 -45 38l-1 9v2q0 37 42 48h5q-23 21 -61 45l-4 4q74 113 83 122q15 12 30 12z" />
    <glyph glyph-name="egrave" unicode="&#xe8;" 
d="M202 1023h209q108 0 184 -124q19 -41 19 -70v-217q0 -103 -115 -179q-43 -26 -109 -26h-94q-64 0 -89 -77l-2 -21q0 -73 83 -102l47 -2h177q71 0 100 -79l2 -19v-9q0 -65 -75 -94q-9 -4 -27 -4h-303q-116 0 -188 121q-21 43 -21 77v608q0 142 149 208q29 9 53 9zM209 720
v-8q0 -73 81 -98l21 -2q68 0 96 79l2 21v6q0 79 -94 100h-6q-69 0 -98 -78zM223 1385q15 0 120 -93q55 -37 55 -78v-18q-21 -66 -74 -66h-10q-12 0 -19 3q-15 0 -120 93q-55 37 -55 78v18q21 66 74 66h10q12 0 19 -3z" />
    <glyph glyph-name="eacute" unicode="&#xe9;" 
d="M202 1023h209q108 0 184 -124q19 -41 19 -70v-217q0 -103 -115 -179q-43 -26 -109 -26h-94q-64 0 -89 -77l-2 -21q0 -73 83 -102l47 -2h177q71 0 100 -79l2 -19v-9q0 -65 -75 -94q-9 -4 -27 -4h-303q-116 0 -188 121q-21 43 -21 77v608q0 142 149 208q29 9 53 9zM209 720
v-8q0 -73 81 -98l21 -2q68 0 96 79l2 21v6q0 79 -94 100h-6q-69 0 -98 -78zM414 1388h10q53 0 74 -66v-18q0 -41 -55 -78q-105 -93 -120 -93q-7 -3 -19 -3h-10q-53 0 -74 66v18q0 41 55 78q105 93 120 93q7 3 19 3z" />
    <glyph glyph-name="ecircumflex" unicode="&#xea;" 
d="M202 1023h209q108 0 184 -124q19 -41 19 -70v-217q0 -103 -115 -179q-43 -26 -109 -26h-94q-64 0 -89 -77l-2 -21q0 -73 83 -102l47 -2h177q71 0 100 -79l2 -19v-9q0 -65 -75 -94q-9 -4 -27 -4h-303q-116 0 -188 121q-21 43 -21 77v608q0 142 149 208q29 9 53 9zM209 720
v-8q0 -73 81 -98l21 -2q68 0 96 79l2 21v6q0 79 -94 100h-6q-69 0 -98 -78zM329 1372q21 0 121 -65q95 -49 95 -88l2 -12q-12 -81 -81 -81q-26 0 -113 56q-27 18 -34 18q-112 -72 -131 -72l-12 -2q-77 15 -77 76v7q0 49 69 82q123 81 143 81h18z" />
    <glyph glyph-name="edieresis" unicode="&#xeb;" 
d="M202 1023h209q108 0 184 -124q19 -41 19 -70v-217q0 -103 -115 -179q-43 -26 -109 -26h-94q-64 0 -89 -77l-2 -21q0 -73 83 -102l47 -2h177q71 0 100 -79l2 -19v-9q0 -65 -75 -94q-9 -4 -27 -4h-303q-116 0 -188 121q-21 43 -21 77v608q0 142 149 208q29 9 53 9zM209 720
v-8q0 -73 81 -98l21 -2q68 0 96 79l2 21v6q0 79 -94 100h-6q-69 0 -98 -78zM164 1302q54 0 76 -65l1 -27q0 -66 -62 -86l-32 -3q-62 0 -84 57l-3 20v28q0 55 67 76h37zM456 1302h29q53 0 75 -64l2 -18v-15q0 -59 -60 -81l-31 -3q-60 0 -84 48q-6 19 -6 31v21q0 57 62 79z
" />
    <glyph glyph-name="igrave" unicode="&#xec;" horiz-adv-x="322" 
d="M103 1030q75 0 101 -86l2 -28v-804q0 -82 -73 -108q-8 -4 -24 -4h-15q-62 0 -92 77l-2 20v834q0 68 82 97zM23 1385q15 0 120 -93q55 -37 55 -78v-18q-21 -66 -74 -66h-10q-12 0 -19 3q-15 0 -120 93q-55 37 -55 78v18q21 66 74 66h10q12 0 19 -3z" />
    <glyph glyph-name="iacute" unicode="&#xed;" horiz-adv-x="322" 
d="M103 1030q75 0 101 -86l2 -28v-804q0 -82 -73 -108q-8 -4 -24 -4h-15q-62 0 -92 77l-2 20v834q0 68 82 97zM214 1388h10q53 0 74 -66v-18q0 -41 -55 -78q-105 -93 -120 -93q-7 -3 -19 -3h-10q-53 0 -74 66v18q0 41 55 78q105 93 120 93q7 3 19 3z" />
    <glyph glyph-name="icircumflex" unicode="&#xee;" horiz-adv-x="539" 
d="M153 1030q75 0 101 -86l2 -28v-804q0 -82 -73 -108q-8 -4 -24 -4h-15q-62 0 -92 77l-2 20v834q0 68 82 97zM169 1372q21 0 121 -65q95 -49 95 -88l2 -12q-12 -81 -81 -81q-26 0 -113 56q-27 18 -34 18q-112 -72 -131 -72l-12 -2q-77 15 -77 76v7q0 49 69 82
q123 81 143 81h18z" />
    <glyph glyph-name="idieresis" unicode="&#xef;" horiz-adv-x="502" 
d="M203 1030q75 0 101 -86l2 -28v-804q0 -82 -73 -108q-8 -4 -24 -4h-15q-62 0 -92 77l-2 20v834q0 68 82 97zM54 1302q54 0 76 -65l1 -27q0 -66 -62 -86l-32 -3q-62 0 -84 57l-3 20v28q0 55 67 76h37zM346 1302h29q53 0 75 -64l2 -18v-15q0 -59 -60 -81l-31 -3
q-60 0 -84 48q-6 19 -6 31v21q0 57 62 79z" />
    <glyph glyph-name="eth" unicode="&#xf0;" horiz-adv-x="759" 
d="M123 1422q100 0 237 -93h2q112 91 135 91l15 2h13q67 0 95 -81l2 -21q0 -61 -72 -104l-34 -27q106 -110 106 -180v-793q0 -148 -125 -201q-42 -15 -74 -15h-214q-107 0 -173 99q-25 50 -25 102v457q0 136 131 195q36 10 61 10h91q90 0 119 70l4 30v21q-7 23 -68 82
q-192 -150 -209 -150l-22 -2h-12q-65 0 -93 80l-2 22q0 61 74 105l99 76q-48 24 -110 24q-74 31 -74 93v13q0 68 85 95h38zM216 565v-260q0 -70 63 -96q10 -4 28 -4h12q80 0 98 87v271q0 69 -76 95l-11 2q-81 0 -108 -59q-6 -20 -6 -36z" />
    <glyph glyph-name="ntilde" unicode="&#xf1;" 
d="M192 1023h228q88 0 166 -109q28 -50 28 -87v-731q0 -65 -81 -94l-21 -2q-67 0 -96 72q-7 12 -7 52v598q0 65 -79 92l-19 2h-8q-70 0 -96 -76l-2 -18v-596q0 -92 -66 -120l-39 -6q-68 0 -98 77l-2 19v735q0 82 96 158q54 34 96 34zM138 1138q-58 20 -58 69v6l2 17
q70 144 161 144h2q52 0 150 -83l13 14q33 69 81 69l15 -2q60 -19 60 -71l-4 -23q-72 -140 -155 -140h-15q-42 0 -143 82l-13 -15q-31 -67 -79 -67h-17z" />
    <glyph glyph-name="ograve" unicode="&#xf2;" 
d="M194 1023h226q82 0 160 -98q34 -55 34 -96v-635q0 -87 -107 -164q-50 -30 -106 -30h-192q-112 0 -188 119q-21 45 -21 75v635q0 85 102 162q51 32 92 32zM205 722v-419q0 -67 76 -94l22 -2h8q69 0 96 76l2 18v419q0 67 -77 94l-21 2h-8q-70 0 -96 -76zM223 1385
q15 0 120 -93q55 -37 55 -78v-18q-21 -66 -74 -66h-10q-12 0 -19 3q-15 0 -120 93q-55 37 -55 78v18q21 66 74 66h10q12 0 19 -3z" />
    <glyph glyph-name="oacute" unicode="&#xf3;" 
d="M194 1023h226q82 0 160 -98q34 -55 34 -96v-635q0 -87 -107 -164q-50 -30 -106 -30h-192q-112 0 -188 119q-21 45 -21 75v635q0 85 102 162q51 32 92 32zM205 722v-419q0 -67 76 -94l22 -2h8q69 0 96 76l2 18v419q0 67 -77 94l-21 2h-8q-70 0 -96 -76zM414 1388h10
q53 0 74 -66v-18q0 -41 -55 -78q-105 -93 -120 -93q-7 -3 -19 -3h-10q-53 0 -74 66v18q0 41 55 78q105 93 120 93q7 3 19 3z" />
    <glyph glyph-name="ocircumflex" unicode="&#xf4;" 
d="M194 1023h226q82 0 160 -98q34 -55 34 -96v-635q0 -87 -107 -164q-50 -30 -106 -30h-192q-112 0 -188 119q-21 45 -21 75v635q0 85 102 162q51 32 92 32zM205 722v-419q0 -67 76 -94l22 -2h8q69 0 96 76l2 18v419q0 67 -77 94l-21 2h-8q-70 0 -96 -76zM329 1372
q21 0 121 -65q95 -49 95 -88l2 -12q-12 -81 -81 -81q-26 0 -113 56q-27 18 -34 18q-112 -72 -131 -72l-12 -2q-77 15 -77 76v7q0 49 69 82q123 81 143 81h18z" />
    <glyph glyph-name="otilde" unicode="&#xf5;" 
d="M194 1023h226q82 0 160 -98q34 -55 34 -96v-635q0 -87 -107 -164q-50 -30 -106 -30h-192q-112 0 -188 119q-21 45 -21 75v635q0 85 102 162q51 32 92 32zM205 722v-419q0 -67 76 -94l22 -2h8q69 0 96 76l2 18v419q0 67 -77 94l-21 2h-8q-70 0 -96 -76zM138 1138
q-58 20 -58 69v6l2 17q70 144 161 144h2q52 0 150 -83l13 14q33 69 81 69l15 -2q60 -19 60 -71l-4 -23q-72 -140 -155 -140h-15q-42 0 -143 82l-13 -15q-31 -67 -79 -67h-17z" />
    <glyph glyph-name="odieresis" unicode="&#xf6;" 
d="M194 1023h226q82 0 160 -98q34 -55 34 -96v-635q0 -87 -107 -164q-50 -30 -106 -30h-192q-112 0 -188 119q-21 45 -21 75v635q0 85 102 162q51 32 92 32zM205 722v-419q0 -67 76 -94l22 -2h8q69 0 96 76l2 18v419q0 67 -77 94l-21 2h-8q-70 0 -96 -76zM164 1302
q54 0 76 -65l1 -27q0 -66 -62 -86l-32 -3q-62 0 -84 57l-3 20v28q0 55 67 76h37zM456 1302h29q53 0 75 -64l2 -18v-15q0 -59 -60 -81l-31 -3q-60 0 -84 48q-6 19 -6 31v21q0 57 62 79z" />
    <glyph glyph-name="oslash" unicode="&#xf8;" horiz-adv-x="900" 
d="M662 1122h13q69 0 96 -86v-24q0 -35 -68 -134l-35 -64v-623q0 -113 -111 -179q-45 -19 -83 -19h-223q-25 0 -70 12q-58 -104 -83 -104q-16 -11 -39 -11h-13q-69 0 -96 86v23q0 35 68 135l35 64v622q0 114 111 180q45 19 83 19h223q25 0 70 -13q58 105 83 105q16 11 39 11
zM258 814v-276l167 276h-167zM296 198h167v276z" />
    <glyph glyph-name="ugrave" unicode="&#xf9;" 
d="M94 1023h15q63 0 91 -77q5 -18 5 -47v-603q0 -59 76 -87l22 -2h6q73 0 100 83v609q0 86 56 113q22 11 40 11h15q63 0 92 -77l2 -17v-735q0 -106 -109 -171q-47 -23 -106 -23h-186q-130 0 -202 143q-11 36 -11 53v733q0 64 77 92zM223 1385q15 0 120 -93q55 -37 55 -78
v-18q-21 -66 -74 -66h-10q-12 0 -19 3q-15 0 -120 93q-55 37 -55 78v18q21 66 74 66h10q12 0 19 -3z" />
    <glyph glyph-name="uacute" unicode="&#xfa;" 
d="M94 1023h15q63 0 91 -77q5 -18 5 -47v-603q0 -59 76 -87l22 -2h6q73 0 100 83v609q0 86 56 113q22 11 40 11h15q63 0 92 -77l2 -17v-735q0 -106 -109 -171q-47 -23 -106 -23h-186q-130 0 -202 143q-11 36 -11 53v733q0 64 77 92zM414 1388h10q53 0 74 -66v-18
q0 -41 -55 -78q-105 -93 -120 -93q-7 -3 -19 -3h-10q-53 0 -74 66v18q0 41 55 78q105 93 120 93q7 3 19 3z" />
    <glyph glyph-name="ucircumflex" unicode="&#xfb;" 
d="M94 1023h15q63 0 91 -77q5 -18 5 -47v-603q0 -59 76 -87l22 -2h6q73 0 100 83v609q0 86 56 113q22 11 40 11h15q63 0 92 -77l2 -17v-735q0 -106 -109 -171q-47 -23 -106 -23h-186q-130 0 -202 143q-11 36 -11 53v733q0 64 77 92zM329 1372q21 0 121 -65q95 -49 95 -88
l2 -12q-12 -81 -81 -81q-26 0 -113 56q-27 18 -34 18q-112 -72 -131 -72l-12 -2q-77 15 -77 76v7q0 49 69 82q123 81 143 81h18z" />
    <glyph glyph-name="udieresis" unicode="&#xfc;" 
d="M94 1023h15q63 0 91 -77q5 -18 5 -47v-603q0 -59 76 -87l22 -2h6q73 0 100 83v609q0 86 56 113q22 11 40 11h15q63 0 92 -77l2 -17v-735q0 -106 -109 -171q-47 -23 -106 -23h-186q-130 0 -202 143q-11 36 -11 53v733q0 64 77 92zM164 1302q54 0 76 -65l1 -27
q0 -66 -62 -86l-32 -3q-62 0 -84 57l-3 20v28q0 55 67 76h37zM456 1302h29q53 0 75 -64l2 -18v-15q0 -59 -60 -81l-31 -3q-60 0 -84 48q-6 19 -6 31v21q0 57 62 79z" />
    <glyph glyph-name="yacute" unicode="&#xfd;" 
d="M93 1019h15q65 0 93 -81l3 -36v-602q0 -62 80 -91l21 -2q70 0 100 76l2 21v592q0 88 62 115q23 8 38 8h2q77 0 102 -85v-1147q0 -82 -98 -159q-54 -34 -95 -34h-325q-63 0 -91 76l-2 17v15q0 65 81 93l36 2h197q65 0 93 81v32q0 63 -78 91h-113q-141 0 -205 144
q-11 26 -11 49v732q0 63 76 91zM414 1388h10q53 0 74 -66v-18q0 -41 -55 -78q-105 -93 -120 -93q-7 -3 -19 -3h-10q-53 0 -74 66v18q0 41 55 78q105 93 120 93q7 3 19 3z" />
    <glyph glyph-name="thorn" unicode="&#xfe;" horiz-adv-x="721" 
d="M195 1024h226q83 0 160 -98q34 -54 34 -96v-635q0 -87 -106 -165q-49 -29 -113 -29h-101q-61 0 -89 -82v-204q0 -86 -56 -113q-22 -11 -40 -11h-15q-64 0 -92 77l-2 17v1145q0 83 98 160q54 34 96 34zM206 724v-418q0 -69 81 -96l21 -3q70 0 100 77l3 17v423q0 64 -79 91
l-20 2h-8q-69 0 -96 -76zM99 25q-98 77 -98 160v1145l2 17q28 77 92 77h15q18 0 40 -11q56 -27 56 -113v-204q28 -82 89 -82h101q64 0 113 -29q106 -78 106 -165v-635q0 -42 -34 -96q-77 -98 -160 -98h-226q-42 0 -96 34zM208 274q27 -76 96 -76h8l20 2q79 27 79 91v423
l-3 17q-30 77 -100 77l-21 -3q-81 -27 -81 -96v-418z" />
    <glyph glyph-name="ydieresis" unicode="&#xff;" horiz-adv-x="705" 
d="M105 1011q66 0 91 -78l90 -430h4q107 442 117 461q36 47 81 47h12q67 0 93 -82v-23q0 -15 -282 -1134q-61 -144 -161 -144h-57q-67 0 -93 82v23q0 67 82 93h35q11 25 62 236q-179 824 -179 846v10q0 67 82 93h23zM164 1302q54 0 76 -65l1 -27q0 -66 -62 -86l-32 -3
q-62 0 -84 57l-3 20v28q0 55 67 76h37zM456 1302h29q53 0 75 -64l2 -18v-15q0 -59 -60 -81l-31 -3q-60 0 -84 48q-6 19 -6 31v21q0 57 62 79z" />
    <glyph glyph-name="quoteleft" unicode="&#x2018;" horiz-adv-x="439" 
d="M246 1449q60 -25 60 -100q0 -10 -1 -21l-92 -221q-24 -60 -102 -60q-9 0 -19 1l-23 9q-59 25 -59 101q0 10 1 21l91 220q25 60 101 60q10 0 21 -1z" />
    <glyph glyph-name="quoteright" unicode="&#x2019;" horiz-adv-x="439" 
d="M246 1449q60 -25 60 -100q0 -10 -1 -21l-92 -221q-24 -60 -102 -60q-9 0 -19 1l-23 9q-59 25 -59 101q0 10 1 21l91 220q25 60 101 60q10 0 21 -1z" />
    <glyph glyph-name="quotesinglbase" unicode="&#x201a;" horiz-adv-x="439" 
d="M246 189q60 -25 60 -100q0 -10 -1 -21l-92 -221q-24 -60 -102 -60q-9 0 -19 1l-23 9q-59 25 -59 101q0 10 1 21l91 220q25 60 101 60q10 0 21 -1z" />
    <glyph glyph-name="quotedblleft" unicode="&#x201c;" horiz-adv-x="778" 
d="M246 1409q60 -25 60 -100q0 -10 -1 -21l-92 -221q-24 -60 -102 -60q-9 0 -19 1l-23 9q-59 25 -59 101q0 10 1 21l91 220q25 60 101 60q10 0 21 -1zM586 1409q60 -25 60 -100q0 -10 -1 -21l-92 -221q-24 -60 -102 -60q-9 0 -19 1l-23 9q-59 25 -59 101q0 10 1 21l91 220
q25 60 101 60q10 0 21 -1z" />
    <glyph glyph-name="quotedblright" unicode="&#x201d;" horiz-adv-x="778" 
d="M246 1409q60 -25 60 -100q0 -10 -1 -21l-92 -221q-24 -60 -102 -60q-9 0 -19 1l-23 9q-59 25 -59 101q0 10 1 21l91 220q25 60 101 60q10 0 21 -1zM586 1409q60 -25 60 -100q0 -10 -1 -21l-92 -221q-24 -60 -102 -60q-9 0 -19 1l-23 9q-59 25 -59 101q0 10 1 21l91 220
q25 60 101 60q10 0 21 -1z" />
    <glyph glyph-name="quotedblbase" unicode="&#x201e;" horiz-adv-x="778" 
d="M246 189q60 -25 60 -100q0 -10 -1 -21l-92 -221q-24 -60 -102 -60q-9 0 -19 1l-23 9q-59 25 -59 101q0 10 1 21l91 220q25 60 101 60q10 0 21 -1zM586 189q60 -25 60 -100q0 -10 -1 -21l-92 -221q-24 -60 -102 -60q-9 0 -19 1l-23 9q-59 25 -59 101q0 10 1 21l91 220
q25 60 101 60q10 0 21 -1z" />
    <glyph glyph-name="Euro" unicode="&#x20ac;" horiz-adv-x="1460" 
d="M815 1423h30q232 0 432 -158q35 -38 35 -84q0 -84 -91 -116l-20 -3h-15q-39 0 -119 60q-114 64 -237 64q-228 0 -383 -195l-17 -27h467q80 0 111 -99v-27q0 -80 -99 -112h-553v-29h541q80 0 111 -99v-27q0 -80 -99 -111h-479q78 -138 272 -206q79 -17 128 -17
q146 0 287 94l37 8h15q78 0 111 -94l2 -25q0 -97 -173 -163q-131 -57 -264 -57h-30q-293 0 -521 242q-92 111 -131 218h-52q-80 0 -111 98v28q0 80 99 111h20v29h-8q-80 0 -111 99v27q0 80 99 112h62q5 4 37 79q45 90 158 200q212 180 459 180z" />
    <glyph glyph-name="afii10193" unicode="&#x45f;" horiz-adv-x="759" 
d="M108 1016q68 0 95 -85v-598q0 -105 66 -123q8 -4 23 -4h25q60 0 85 72l4 55v588q0 68 85 95h23q68 0 95 -85v-738q0 -123 -133 -181q-40 -11 -64 -11h-6v-108q0 -68 -85 -95h-23q-68 0 -95 85v118h-11q-123 0 -181 133q-11 40 -11 64v723q0 68 85 95h23z" />
    <glyph glyph-name="afii10023" unicode="&#x401;" horiz-adv-x="1151" 
d="M264 1702q54 0 76 -65l1 -27q0 -66 -62 -86l-32 -3q-62 0 -84 57l-3 20v28q0 55 67 76h37zM556 1702h29q53 0 75 -64l2 -18v-15q0 -59 -60 -81l-31 -3q-60 0 -84 48q-6 19 -6 31v21q0 57 62 79zM199 1435h525q69 0 96 -85v-24q0 -69 -85 -96h-389q-97 0 -111 -30
q-30 -23 -30 -100v-145q0 -93 36 -112q25 -23 94 -23h286q70 0 97 -85v-24q0 -69 -86 -96h-286q-97 0 -111 -30q-30 -23 -30 -100v-145q0 -93 36 -112q25 -23 94 -23h389q69 0 96 -85v-24q0 -69 -85 -96h-541q-125 0 -183 135q-11 39 -11 64v1042q0 125 135 183q39 11 64 11
z" />
    <glyph glyph-name="afii10051" unicode="&#x402;" horiz-adv-x="1200" 
d="M646 1421q69 0 95 -85v-23q0 -68 -84 -95h-55q-96 0 -110 -30q-30 -22 -30 -99v-144q0 -91 36 -110q24 -23 93 -23h125q95 0 218 -89q137 -122 137 -300v-138q0 -67 -57 -167q-94 -118 -235 -118h-19q-68 0 -95 85v23q0 68 85 95q76 0 95 32q23 34 23 86v58
q0 161 -87 200q-47 30 -82 30h-97q-96 0 -110 -30q-30 -22 -30 -99v-391q0 -48 -65 -85l-28 -4h-17q-65 0 -93 82v996q0 96 -29 110q-23 30 -100 30h-55q-68 0 -95 85v23q0 68 85 95h581z" />
  </font>
</defs>
</svg>
